<svg width="195" height="61" viewBox="0 0 200 61" fill="none" xmlns="http://www.w3.org/2000/svg">
<mask id="mask0_34_7" style="mask-type:alpha" maskUnits="userSpaceOnUse" x="0" y="0" width="61" height="61">
<circle cx="30.5" cy="30.5" r="30.5" transform="rotate(180 30.5 30.5)" fill="#CE6262"/>
</mask>
<g mask="url(#mask0_34_7)">
<rect x="93.4805" y="55.4545" width="126.753" height="13.4675" transform="rotate(180 93.4805 55.4545)" fill="#CE6262"/>
<path d="M93.4805 37.2338L-33.2727 37.2338L-33.2727 23.7662L93.4805 23.7662L93.4805 37.2338Z" fill="#F5E021"/>
<rect x="93.4805" y="19.013" width="126.753" height="13.4675" transform="rotate(180 93.4805 19.013)" fill="#CE6262"/>
<rect x="93.4805" y="6.33765" width="126.753" height="13.4675" transform="rotate(180 93.4805 6.33765)" fill="#CE6262"/>
</g>
<path d="M81.0195 25.2661L76.1855 40H72.2915L78.8955 22.2266H81.3735L81.0195 25.2661ZM85.0356 40L80.1895 25.2661L79.7988 22.2266H82.3013L88.9419 40H85.0356ZM84.8159 33.3838V36.2524H75.4287V33.3838H84.8159ZM94.0811 21.25V40H90.5532V21.25H94.0811ZM100.502 29.5264V40H96.9741V26.792H100.282L100.502 29.5264ZM100.014 32.9321H99.0371C99.0371 32.0125 99.147 31.1662 99.3667 30.3931C99.5946 29.6118 99.9242 28.9364 100.355 28.3667C100.795 27.7889 101.336 27.3413 101.979 27.0239C102.622 26.7065 103.367 26.5479 104.213 26.5479C104.799 26.5479 105.336 26.6374 105.824 26.8164C106.312 26.9873 106.732 27.2599 107.082 27.6343C107.44 28.0005 107.716 28.4806 107.912 29.0747C108.107 29.6606 108.205 30.3646 108.205 31.1865V40H104.689V31.5771C104.689 30.9749 104.608 30.5111 104.445 30.1855C104.282 29.86 104.05 29.6322 103.749 29.502C103.456 29.3717 103.102 29.3066 102.687 29.3066C102.231 29.3066 101.833 29.4002 101.491 29.5874C101.157 29.7746 100.88 30.035 100.661 30.3687C100.441 30.6942 100.278 31.0767 100.172 31.5161C100.067 31.9556 100.014 32.4276 100.014 32.9321ZM107.875 32.5293L106.618 32.688C106.618 31.8254 106.723 31.0238 106.935 30.2832C107.155 29.5426 107.476 28.8916 107.899 28.3301C108.331 27.7686 108.864 27.3332 109.499 27.0239C110.133 26.7065 110.866 26.5479 111.696 26.5479C112.331 26.5479 112.908 26.6414 113.429 26.8286C113.95 27.0076 114.394 27.2965 114.76 27.6953C115.134 28.0859 115.419 28.5986 115.614 29.2334C115.818 29.8682 115.919 30.6453 115.919 31.5649V40H112.392V31.5649C112.392 30.9546 112.31 30.4907 112.147 30.1733C111.993 29.8478 111.765 29.624 111.464 29.502C111.171 29.3717 110.821 29.3066 110.414 29.3066C109.991 29.3066 109.621 29.3921 109.303 29.563C108.986 29.7257 108.721 29.9536 108.51 30.2466C108.298 30.5396 108.139 30.8813 108.034 31.272C107.928 31.6545 107.875 32.0736 107.875 32.5293ZM125.771 37.0215V31.1377C125.771 30.7145 125.701 30.3524 125.563 30.0513C125.425 29.742 125.209 29.502 124.916 29.3311C124.631 29.1602 124.261 29.0747 123.805 29.0747C123.415 29.0747 123.077 29.1439 122.792 29.2822C122.507 29.4124 122.287 29.6037 122.133 29.856C121.978 30.1001 121.901 30.389 121.901 30.7227H118.385C118.385 30.1611 118.515 29.6281 118.776 29.1235C119.036 28.619 119.415 28.1755 119.911 27.793C120.408 27.4023 120.998 27.0972 121.681 26.8774C122.373 26.6577 123.146 26.5479 124 26.5479C125.026 26.5479 125.937 26.7188 126.735 27.0605C127.532 27.4023 128.159 27.915 128.615 28.5986C129.079 29.2822 129.311 30.1367 129.311 31.1621V36.814C129.311 37.5382 129.355 38.1323 129.445 38.5962C129.534 39.0519 129.665 39.4507 129.835 39.7925V40H126.283C126.112 39.6419 125.982 39.1943 125.893 38.6572C125.811 38.112 125.771 37.5667 125.771 37.0215ZM126.234 31.9556L126.259 33.9453H124.293C123.83 33.9453 123.427 33.9982 123.085 34.104C122.743 34.2098 122.462 34.3604 122.243 34.5557C122.023 34.7428 121.86 34.9626 121.754 35.2148C121.657 35.4671 121.608 35.7438 121.608 36.0449C121.608 36.346 121.677 36.6187 121.815 36.8628C121.954 37.0988 122.153 37.286 122.414 37.4243C122.674 37.5545 122.979 37.6196 123.329 37.6196C123.858 37.6196 124.318 37.5138 124.708 37.3022C125.099 37.0907 125.4 36.8302 125.612 36.521C125.832 36.2118 125.945 35.9188 125.954 35.6421L126.881 37.1313C126.751 37.465 126.572 37.8109 126.344 38.1689C126.125 38.527 125.844 38.8647 125.502 39.1821C125.16 39.4914 124.749 39.7477 124.269 39.9512C123.789 40.1465 123.219 40.2441 122.56 40.2441C121.722 40.2441 120.961 40.0773 120.277 39.7437C119.602 39.4019 119.065 38.9339 118.666 38.3398C118.275 37.7376 118.08 37.054 118.08 36.2891C118.08 35.5973 118.21 34.9829 118.471 34.4458C118.731 33.9087 119.114 33.457 119.618 33.0908C120.131 32.7165 120.77 32.4357 121.535 32.2485C122.3 32.0532 123.187 31.9556 124.196 31.9556H126.234ZM135.463 29.6118V40H131.947V26.792H135.243L135.463 29.6118ZM134.95 32.9321H133.998C133.998 31.9556 134.124 31.0767 134.376 30.2954C134.629 29.506 134.983 28.8346 135.438 28.2812C135.894 27.7197 136.435 27.2925 137.062 26.9995C137.697 26.6984 138.405 26.5479 139.186 26.5479C139.805 26.5479 140.37 26.6374 140.883 26.8164C141.396 26.9954 141.835 27.2803 142.201 27.6709C142.576 28.0615 142.86 28.5783 143.056 29.2212C143.259 29.8641 143.361 30.6494 143.361 31.5771V40H139.821V31.5649C139.821 30.979 139.739 30.5233 139.577 30.1978C139.414 29.8722 139.174 29.6444 138.856 29.5142C138.547 29.3758 138.165 29.3066 137.709 29.3066C137.237 29.3066 136.826 29.4002 136.476 29.5874C136.134 29.7746 135.849 30.035 135.622 30.3687C135.402 30.6942 135.235 31.0767 135.121 31.5161C135.007 31.9556 134.95 32.4276 134.95 32.9321ZM153.175 36.3501C153.175 36.0978 153.102 35.87 152.956 35.6665C152.809 35.4631 152.536 35.2759 152.138 35.105C151.747 34.9259 151.181 34.7632 150.441 34.6167C149.774 34.4702 149.151 34.2871 148.573 34.0674C148.004 33.8395 147.507 33.5669 147.084 33.2495C146.669 32.9321 146.343 32.5578 146.107 32.1265C145.871 31.687 145.753 31.1865 145.753 30.625C145.753 30.0716 145.871 29.5508 146.107 29.0625C146.352 28.5742 146.697 28.1429 147.145 27.7686C147.601 27.3861 148.154 27.089 148.805 26.8774C149.464 26.6577 150.205 26.5479 151.027 26.5479C152.174 26.5479 153.159 26.731 153.981 27.0972C154.811 27.4634 155.446 27.9679 155.885 28.6108C156.333 29.2456 156.557 29.9699 156.557 30.7837H153.041C153.041 30.4419 152.968 30.1367 152.821 29.8682C152.683 29.5915 152.463 29.3758 152.162 29.2212C151.869 29.0584 151.487 28.9771 151.015 28.9771C150.624 28.9771 150.286 29.0462 150.001 29.1846C149.717 29.3148 149.497 29.4938 149.342 29.7217C149.196 29.9414 149.123 30.1855 149.123 30.4541C149.123 30.6576 149.163 30.8407 149.245 31.0034C149.334 31.158 149.477 31.3005 149.672 31.4307C149.867 31.5609 150.119 31.6829 150.429 31.7969C150.746 31.9027 151.137 32.0003 151.601 32.0898C152.553 32.2852 153.403 32.5415 154.152 32.8589C154.901 33.1681 155.495 33.5913 155.934 34.1284C156.374 34.6574 156.593 35.3532 156.593 36.2158C156.593 36.8018 156.463 37.3389 156.203 37.8271C155.942 38.3154 155.568 38.7427 155.08 39.1089C154.591 39.467 154.005 39.7477 153.322 39.9512C152.646 40.1465 151.885 40.2441 151.039 40.2441C149.81 40.2441 148.769 40.0244 147.914 39.585C147.068 39.1455 146.425 38.5881 145.985 37.9126C145.554 37.229 145.338 36.5291 145.338 35.813H148.671C148.687 36.2931 148.809 36.6797 149.037 36.9727C149.273 37.2656 149.57 37.4772 149.928 37.6074C150.294 37.7376 150.689 37.8027 151.112 37.8027C151.568 37.8027 151.946 37.7417 152.248 37.6196C152.549 37.4894 152.777 37.3185 152.931 37.1069C153.094 36.8872 153.175 36.6349 153.175 36.3501ZM158.314 33.5303V33.2739C158.314 32.3055 158.453 31.4144 158.729 30.6006C159.006 29.7786 159.409 29.0666 159.938 28.4644C160.467 27.8621 161.118 27.3942 161.891 27.0605C162.664 26.7188 163.551 26.5479 164.552 26.5479C165.553 26.5479 166.444 26.7188 167.226 27.0605C168.007 27.3942 168.662 27.8621 169.191 28.4644C169.728 29.0666 170.135 29.7786 170.412 30.6006C170.688 31.4144 170.827 32.3055 170.827 33.2739V33.5303C170.827 34.4906 170.688 35.3817 170.412 36.2036C170.135 37.0174 169.728 37.7295 169.191 38.3398C168.662 38.9421 168.011 39.41 167.238 39.7437C166.465 40.0773 165.578 40.2441 164.577 40.2441C163.576 40.2441 162.685 40.0773 161.903 39.7437C161.13 39.41 160.475 38.9421 159.938 38.3398C159.409 37.7295 159.006 37.0174 158.729 36.2036C158.453 35.3817 158.314 34.4906 158.314 33.5303ZM161.83 33.2739V33.5303C161.83 34.0837 161.879 34.6004 161.977 35.0806C162.074 35.5607 162.229 35.9839 162.44 36.3501C162.66 36.7082 162.945 36.9889 163.295 37.1924C163.645 37.3958 164.072 37.4976 164.577 37.4976C165.065 37.4976 165.484 37.3958 165.834 37.1924C166.184 36.9889 166.465 36.7082 166.676 36.3501C166.888 35.9839 167.042 35.5607 167.14 35.0806C167.246 34.6004 167.299 34.0837 167.299 33.5303V33.2739C167.299 32.7368 167.246 32.2323 167.14 31.7603C167.042 31.2801 166.884 30.8569 166.664 30.4907C166.452 30.1164 166.172 29.8234 165.822 29.6118C165.472 29.4002 165.049 29.2944 164.552 29.2944C164.056 29.2944 163.633 29.4002 163.283 29.6118C162.941 29.8234 162.66 30.1164 162.44 30.4907C162.229 30.8569 162.074 31.2801 161.977 31.7603C161.879 32.2323 161.83 32.7368 161.83 33.2739ZM172.426 33.5303V33.2739C172.426 32.3055 172.564 31.4144 172.841 30.6006C173.118 29.7786 173.52 29.0666 174.049 28.4644C174.578 27.8621 175.229 27.3942 176.002 27.0605C176.776 26.7188 177.663 26.5479 178.664 26.5479C179.665 26.5479 180.556 26.7188 181.337 27.0605C182.118 27.3942 182.773 27.8621 183.302 28.4644C183.839 29.0666 184.246 29.7786 184.523 30.6006C184.8 31.4144 184.938 32.3055 184.938 33.2739V33.5303C184.938 34.4906 184.8 35.3817 184.523 36.2036C184.246 37.0174 183.839 37.7295 183.302 38.3398C182.773 38.9421 182.122 39.41 181.349 39.7437C180.576 40.0773 179.689 40.2441 178.688 40.2441C177.687 40.2441 176.796 40.0773 176.015 39.7437C175.242 39.41 174.586 38.9421 174.049 38.3398C173.52 37.7295 173.118 37.0174 172.841 36.2036C172.564 35.3817 172.426 34.4906 172.426 33.5303ZM175.941 33.2739V33.5303C175.941 34.0837 175.99 34.6004 176.088 35.0806C176.186 35.5607 176.34 35.9839 176.552 36.3501C176.771 36.7082 177.056 36.9889 177.406 37.1924C177.756 37.3958 178.183 37.4976 178.688 37.4976C179.176 37.4976 179.595 37.3958 179.945 37.1924C180.295 36.9889 180.576 36.7082 180.788 36.3501C180.999 35.9839 181.154 35.5607 181.251 35.0806C181.357 34.6004 181.41 34.0837 181.41 33.5303V33.2739C181.41 32.7368 181.357 32.2323 181.251 31.7603C181.154 31.2801 180.995 30.8569 180.775 30.4907C180.564 30.1164 180.283 29.8234 179.933 29.6118C179.583 29.4002 179.16 29.2944 178.664 29.2944C178.167 29.2944 177.744 29.4002 177.394 29.6118C177.052 29.8234 176.771 30.1164 176.552 30.4907C176.34 30.8569 176.186 31.2801 176.088 31.7603C175.99 32.2323 175.941 32.7368 175.941 33.2739ZM187.099 21.25H190.614V36.9727L190.26 40H187.099V21.25ZM198.976 33.2617V33.5181C198.976 34.5028 198.87 35.4061 198.659 36.228C198.455 37.05 198.138 37.762 197.707 38.3643C197.275 38.9583 196.738 39.4222 196.095 39.7559C195.46 40.0814 194.712 40.2441 193.849 40.2441C193.043 40.2441 192.344 40.0814 191.75 39.7559C191.164 39.4303 190.671 38.9705 190.272 38.3765C189.874 37.7824 189.552 37.0866 189.308 36.2891C189.064 35.4915 188.881 34.6208 188.759 33.6768V33.1152C188.881 32.1712 189.064 31.3005 189.308 30.5029C189.552 29.7054 189.874 29.0096 190.272 28.4155C190.671 27.8215 191.164 27.3617 191.75 27.0361C192.335 26.7106 193.027 26.5479 193.825 26.5479C194.695 26.5479 195.452 26.7147 196.095 27.0483C196.746 27.3739 197.283 27.8377 197.707 28.4399C198.138 29.034 198.455 29.742 198.659 30.564C198.87 31.3778 198.976 32.277 198.976 33.2617ZM195.46 33.5181V33.2617C195.46 32.7246 195.42 32.2201 195.338 31.748C195.265 31.2679 195.135 30.8488 194.948 30.4907C194.761 30.1245 194.504 29.8356 194.179 29.624C193.861 29.4124 193.45 29.3066 192.946 29.3066C192.466 29.3066 192.059 29.388 191.725 29.5508C191.391 29.7135 191.115 29.9414 190.895 30.2344C190.683 30.5273 190.525 30.8773 190.419 31.2842C190.313 31.6829 190.248 32.1224 190.224 32.6025V34.2017C190.248 34.8446 190.354 35.4142 190.541 35.9106C190.736 36.3989 191.029 36.7855 191.42 37.0703C191.819 37.347 192.335 37.4854 192.97 37.4854C193.467 37.4854 193.878 37.3877 194.203 37.1924C194.529 36.9971 194.781 36.7204 194.96 36.3623C195.147 36.0042 195.277 35.5851 195.351 35.105C195.424 34.6167 195.46 34.0877 195.46 33.5181Z" fill="#F5E021"/>
</svg>
