<svg width="250" height="150" viewBox="0 0 250 150" fill="none" xmlns="http://www.w3.org/2000/svg">
<rect width="250" height="150" fill="#FFAA00"/>
<path d="M23.127 67.3047C23.1855 67.3047 23.2246 67.321 23.2441 67.3535C23.2702 67.3861 23.2832 67.4219 23.2832 67.4609C23.2832 67.5391 23.2279 67.6497 23.1172 67.793C23.0065 67.9362 22.8828 68.1055 22.7461 68.3008C22.6094 68.4896 22.4857 68.6947 22.375 68.916C22.2643 69.1374 22.209 69.3587 22.209 69.5801C22.209 69.8079 22.2383 70.0618 22.2969 70.3418C22.3555 70.6217 22.4271 70.9115 22.5117 71.2109C22.6029 71.5039 22.7005 71.7936 22.8047 72.0801C22.9089 72.3665 23.0098 72.627 23.1074 72.8613C23.14 72.959 23.1986 73.1087 23.2832 73.3105C23.3678 73.5059 23.4622 73.724 23.5664 73.9648C23.6706 74.2057 23.7812 74.4531 23.8984 74.707C24.0221 74.9609 24.1393 75.1953 24.25 75.4102C24.3607 75.6185 24.4616 75.791 24.5527 75.9277C24.6439 76.0579 24.7155 76.123 24.7676 76.123C24.8197 76.123 24.8913 76.0677 24.9824 75.957C25.0736 75.8398 25.1777 75.6803 25.2949 75.4785C25.4186 75.2702 25.5586 75.0293 25.7148 74.7559C25.8776 74.4759 26.0534 74.1699 26.2422 73.8379C26.5352 73.3236 26.7923 72.8613 27.0137 72.4512C27.2415 72.041 27.4368 71.6927 27.5996 71.4062C27.7624 71.1198 27.8958 70.9017 28 70.752C28.1042 70.5957 28.1855 70.5176 28.2441 70.5176C28.3027 70.5176 28.3776 70.5664 28.4688 70.6641C28.5664 70.7617 28.7031 70.9375 28.8789 71.1914C29.0612 71.4453 29.2956 71.7936 29.582 72.2363C29.875 72.679 30.2493 73.2454 30.7051 73.9355C30.7767 74.0462 30.8776 74.2057 31.0078 74.4141C31.1445 74.6224 31.2943 74.8535 31.457 75.1074C31.6198 75.3613 31.7891 75.6217 31.9648 75.8887C32.1471 76.1491 32.3164 76.3867 32.4727 76.6016C32.6354 76.8164 32.7786 76.9954 32.9023 77.1387C33.0326 77.2754 33.127 77.3438 33.1855 77.3438C33.2507 77.3438 33.3418 77.2591 33.459 77.0898C33.5762 76.9141 33.7031 76.7025 33.8398 76.4551C33.9766 76.2012 34.1133 75.9342 34.25 75.6543C34.3932 75.3743 34.5169 75.1237 34.6211 74.9023C34.6667 74.8047 34.7448 74.6354 34.8555 74.3945C34.9661 74.1536 35.0931 73.8639 35.2363 73.5254C35.3861 73.1868 35.5488 72.8125 35.7246 72.4023C35.9004 71.9857 36.0729 71.5592 36.2422 71.123C36.418 70.6868 36.5872 70.2507 36.75 69.8145C36.9128 69.3717 37.056 68.9551 37.1797 68.5645C37.3099 68.1738 37.4108 67.8223 37.4824 67.5098C37.5605 67.1908 37.5996 66.9336 37.5996 66.7383C37.5996 66.569 37.5443 66.416 37.4336 66.2793C37.3229 66.1426 37.1667 66.0221 36.9648 65.918C36.6589 65.7617 36.3854 65.6348 36.1445 65.5371C35.9102 65.4329 35.7083 65.3451 35.5391 65.2734C35.3763 65.1953 35.2526 65.127 35.168 65.0684C35.0833 65.0033 35.041 64.9284 35.041 64.8438C35.041 64.7721 35.0671 64.7168 35.1191 64.6777C35.1712 64.6387 35.2331 64.6191 35.3047 64.6191C35.4023 64.6191 35.5293 64.6484 35.6855 64.707C35.8418 64.7591 36.0469 64.8275 36.3008 64.9121C36.5612 64.9902 36.8835 65.0781 37.2676 65.1758C37.6582 65.2734 38.1367 65.3613 38.7031 65.4395C39.1523 65.498 39.5658 65.5404 39.9434 65.5664C40.321 65.5859 40.6758 65.5957 41.0078 65.5957C41.2096 65.5957 41.3789 65.5924 41.5156 65.5859C41.6523 65.5794 41.763 65.5762 41.8477 65.5762C42.0299 65.5762 42.1536 65.6022 42.2188 65.6543C42.2904 65.6999 42.3262 65.7617 42.3262 65.8398C42.3262 65.918 42.3001 65.9798 42.248 66.0254C42.196 66.0645 42.1309 66.097 42.0527 66.123C41.9811 66.1491 41.8997 66.1654 41.8086 66.1719C41.724 66.1784 41.6426 66.1816 41.5645 66.1816C41.2259 66.1816 40.9362 66.1914 40.6953 66.2109C40.4609 66.224 40.2526 66.2565 40.0703 66.3086C39.8945 66.3542 39.735 66.429 39.5918 66.5332C39.4486 66.6309 39.3053 66.7611 39.1621 66.9238C39.0124 67.0931 38.8398 67.3535 38.6445 67.7051C38.4492 68.0501 38.2409 68.457 38.0195 68.9258C37.7982 69.388 37.5638 69.8926 37.3164 70.4395C37.0755 70.9863 36.8314 71.543 36.584 72.1094C36.3431 72.6693 36.1022 73.2227 35.8613 73.7695C35.6204 74.3164 35.3893 74.821 35.168 75.2832C35.0312 75.5697 34.8652 75.9277 34.6699 76.3574C34.4811 76.7806 34.2793 77.2298 34.0645 77.7051C33.8496 78.1803 33.6315 78.6556 33.4102 79.1309C33.1953 79.5996 32.9902 80.0228 32.7949 80.4004C32.5996 80.778 32.4271 81.084 32.2773 81.3184C32.1276 81.5592 32.0169 81.6797 31.9453 81.6797C31.8346 81.6797 31.6556 81.4453 31.4082 80.9766C31.1673 80.5143 30.8451 79.8503 30.4414 78.9844C30.194 78.444 29.9564 77.9167 29.7285 77.4023C29.5072 76.8815 29.2956 76.3932 29.0938 75.9375C28.8984 75.4753 28.7194 75.0521 28.5566 74.668C28.3939 74.2839 28.2474 73.9518 28.1172 73.6719C27.987 73.3919 27.8763 73.1738 27.7852 73.0176C27.694 72.8613 27.6257 72.7832 27.5801 72.7832C27.5345 72.7832 27.4531 72.8711 27.3359 73.0469C27.2253 73.2227 27.0918 73.4473 26.9355 73.7207C26.7858 73.9941 26.6263 74.2969 26.457 74.6289C26.2878 74.9609 26.125 75.2799 25.9688 75.5859C25.8125 75.8919 25.6725 76.1686 25.5488 76.416C25.4251 76.6634 25.3372 76.8392 25.2852 76.9434L23.8203 79.7168C23.7292 79.8796 23.651 79.9935 23.5859 80.0586C23.5273 80.1237 23.4655 80.1562 23.4004 80.1562C23.2897 80.1562 23.1855 80.0391 23.0879 79.8047C23.0098 79.6224 22.9219 79.4108 22.8242 79.1699C22.7331 78.929 22.6354 78.6719 22.5312 78.3984C22.4336 78.1185 22.3294 77.832 22.2188 77.5391C22.1146 77.2396 22.0104 76.9466 21.9062 76.6602C21.7174 76.1328 21.5482 75.6217 21.3984 75.127C21.2487 74.6257 21.1022 74.1536 20.959 73.7109C20.8158 73.2617 20.6693 72.8516 20.5195 72.4805C20.3698 72.1094 20.2038 71.7904 20.0215 71.5234C19.8392 71.25 19.6309 71.0384 19.3965 70.8887C19.1686 70.7389 18.9049 70.6641 18.6055 70.6641C18.4557 70.6641 18.3092 70.6738 18.166 70.6934C18.0293 70.7064 17.8958 70.7227 17.7656 70.7422C17.6419 70.7617 17.5247 70.7812 17.4141 70.8008C17.3099 70.8138 17.2188 70.8203 17.1406 70.8203C16.9193 70.8203 16.8086 70.7389 16.8086 70.5762C16.8086 70.485 16.8379 70.4199 16.8965 70.3809C16.9551 70.3353 17.0299 70.2962 17.1211 70.2637C17.2383 70.2246 17.3945 70.1888 17.5898 70.1562C17.7852 70.1237 18.0098 70.0749 18.2637 70.0098C18.5241 69.9447 18.8138 69.8568 19.1328 69.7461C19.4518 69.6354 19.7969 69.4857 20.168 69.2969C20.6888 69.0365 21.1217 68.7858 21.4668 68.5449C21.8118 68.304 22.0951 68.0924 22.3164 67.9102C22.5443 67.7214 22.7168 67.5749 22.834 67.4707C22.9577 67.36 23.0553 67.3047 23.127 67.3047ZM40.666 62.4805C40.7832 62.4805 40.9362 62.513 41.125 62.5781C41.3203 62.6432 41.5482 62.7246 41.8086 62.8223C42.0755 62.9134 42.3717 63.0111 42.6973 63.1152C43.0293 63.2129 43.3874 63.3008 43.7715 63.3789C44.1491 63.457 44.5462 63.5221 44.9629 63.5742C45.3861 63.6198 45.7832 63.6589 46.1543 63.6914C46.5254 63.7174 46.8509 63.7402 47.1309 63.7598C47.4173 63.7793 47.6094 63.7923 47.707 63.7988C47.7982 63.8118 47.8698 63.8314 47.9219 63.8574C47.9805 63.877 48.0098 63.9193 48.0098 63.9844C48.0098 64.056 47.9805 64.1048 47.9219 64.1309C47.8633 64.1504 47.7982 64.1602 47.7266 64.1602C47.5833 64.1602 47.3717 64.1504 47.0918 64.1309C46.8184 64.1113 46.5286 64.1016 46.2227 64.1016C45.9948 64.1016 45.793 64.1243 45.6172 64.1699C45.4479 64.209 45.3047 64.2773 45.1875 64.375C45.0768 64.4727 44.9889 64.6029 44.9238 64.7656C44.8587 64.9219 44.8197 65.1204 44.8066 65.3613C44.7936 65.498 44.7839 65.6771 44.7773 65.8984C44.7773 66.1133 44.7741 66.3542 44.7676 66.6211C44.7676 66.888 44.7676 67.1745 44.7676 67.4805C44.7676 67.7799 44.7676 68.0859 44.7676 68.3984C44.7676 68.776 44.7676 69.1439 44.7676 69.502C44.7676 69.86 44.7676 70.1888 44.7676 70.4883C44.7676 70.7878 44.7676 71.0417 44.7676 71.25C44.7741 71.4583 44.7806 71.6016 44.7871 71.6797C44.7936 71.849 44.8132 71.9857 44.8457 72.0898C44.8783 72.194 44.9238 72.2754 44.9824 72.334C45.041 72.3926 45.1094 72.4316 45.1875 72.4512C45.2656 72.4707 45.3535 72.4805 45.4512 72.4805C45.6335 72.4805 45.8548 72.474 46.1152 72.4609C46.3757 72.4414 46.6523 72.4186 46.9453 72.3926C47.2448 72.3665 47.5443 72.3372 47.8438 72.3047C48.1432 72.2656 48.4199 72.2331 48.6738 72.207C48.9342 72.1745 49.1621 72.1452 49.3574 72.1191C49.5527 72.0931 49.6895 72.0736 49.7676 72.0605C49.9889 72.0215 50.1647 71.9466 50.2949 71.8359C50.4251 71.7253 50.5195 71.5918 50.5781 71.4355C50.6432 71.2793 50.6823 71.1035 50.6953 70.9082C50.7148 70.7064 50.7246 70.498 50.7246 70.2832C50.7246 69.9902 50.7116 69.6908 50.6855 69.3848C50.666 69.0723 50.64 68.776 50.6074 68.4961C50.5749 68.2161 50.5391 67.9622 50.5 67.7344C50.4674 67.5065 50.4414 67.334 50.4219 67.2168C50.3828 66.9629 50.3242 66.7676 50.2461 66.6309C50.168 66.4876 50.0801 66.3835 49.9824 66.3184C49.8913 66.2467 49.7936 66.2044 49.6895 66.1914C49.5918 66.1719 49.5039 66.1621 49.4258 66.1621C49.2044 66.1621 48.9766 66.1686 48.7422 66.1816C48.5143 66.1947 48.3353 66.2012 48.2051 66.2012C48.0749 66.2012 47.974 66.1751 47.9023 66.123C47.8372 66.071 47.8047 66.0026 47.8047 65.918C47.8047 65.8464 47.8307 65.778 47.8828 65.7129C47.9414 65.6478 48.0749 65.6087 48.2832 65.5957C48.4785 65.5892 48.6966 65.5794 48.9375 65.5664C49.1849 65.5469 49.4421 65.5241 49.709 65.498C49.9824 65.4655 50.2591 65.4297 50.5391 65.3906C50.819 65.3516 51.0957 65.3027 51.3691 65.2441C51.6165 65.1855 51.8802 65.1172 52.1602 65.0391C52.4466 64.9544 52.7233 64.8763 52.9902 64.8047C53.2637 64.7266 53.5176 64.6615 53.752 64.6094C53.9863 64.5508 54.1784 64.5215 54.3281 64.5215C54.4779 64.5215 54.5723 64.5443 54.6113 64.5898C54.6504 64.6354 54.6699 64.6842 54.6699 64.7363C54.6699 64.8275 54.6309 64.8926 54.5527 64.9316C54.4811 64.9642 54.3997 64.9805 54.3086 64.9805C54.263 64.9805 54.2012 64.9837 54.123 64.9902C54.0449 64.9967 53.9635 65.0098 53.8789 65.0293C53.7943 65.0423 53.7096 65.0618 53.625 65.0879C53.5404 65.1139 53.4688 65.1497 53.4102 65.1953C53.306 65.2799 53.2083 65.3971 53.1172 65.5469C53.0326 65.6901 52.9674 65.9082 52.9219 66.2012C52.8893 66.4355 52.8633 66.7318 52.8438 67.0898C52.8307 67.4414 52.8177 67.8125 52.8047 68.2031C52.7917 68.5938 52.7786 68.9844 52.7656 69.375C52.7591 69.7656 52.7526 70.1139 52.7461 70.4199C52.7396 70.5762 52.7298 70.8073 52.7168 71.1133C52.7103 71.4128 52.7038 71.7611 52.6973 72.1582C52.6908 72.5488 52.681 72.9785 52.668 73.4473C52.6615 73.9095 52.6549 74.3815 52.6484 74.8633C52.6419 75.3385 52.6354 75.8171 52.6289 76.2988C52.6289 76.7741 52.6289 77.2201 52.6289 77.6367C52.6289 77.9883 52.6289 78.3105 52.6289 78.6035C52.6289 78.8965 52.6354 79.1471 52.6484 79.3555C52.6549 79.5638 52.681 79.7363 52.7266 79.873C52.7786 80.0033 52.8372 80.1074 52.9023 80.1855C52.9674 80.2702 53.0358 80.332 53.1074 80.3711C53.1855 80.4167 53.2572 80.4525 53.3223 80.4785C53.4655 80.5306 53.6185 80.5697 53.7812 80.5957C53.944 80.6217 54.1198 80.6576 54.3086 80.7031C54.3997 80.7227 54.4583 80.7454 54.4844 80.7715C54.5104 80.804 54.5234 80.8398 54.5234 80.8789C54.5234 80.8919 54.5202 80.9082 54.5137 80.9277C54.5072 80.9538 54.4909 80.9766 54.4648 80.9961C54.4453 81.0156 54.4095 81.0319 54.3574 81.0449C54.3053 81.0579 54.2337 81.0645 54.1426 81.0645C54.0645 81.0645 53.9245 81.0547 53.7227 81.0352C53.5273 81.0221 53.306 81.0026 53.0586 80.9766C52.8112 80.957 52.5573 80.9375 52.2969 80.918C52.0365 80.9049 51.8053 80.8984 51.6035 80.8984C51.3366 80.8984 51.0729 80.9082 50.8125 80.9277C50.5521 80.9538 50.3047 80.9798 50.0703 81.0059C49.8359 81.0384 49.6146 81.0645 49.4062 81.084C49.1979 81.11 49.0124 81.123 48.8496 81.123C48.5762 81.123 48.4004 81.0872 48.3223 81.0156C48.2441 80.9505 48.2051 80.8789 48.2051 80.8008C48.2051 80.6966 48.2441 80.6283 48.3223 80.5957C48.4069 80.5697 48.5078 80.5566 48.625 80.5566C48.9961 80.5436 49.3053 80.5241 49.5527 80.498C49.8066 80.4785 50.0443 80.4199 50.2656 80.3223C50.4284 80.2441 50.5586 80.1497 50.6562 80.0391C50.7604 79.9349 50.8353 79.821 50.8809 79.6973C50.9329 79.5671 50.9655 79.4368 50.9785 79.3066C50.998 79.1699 51.0078 79.0397 51.0078 78.916C51.0078 78.8184 51.0013 78.6426 50.9883 78.3887C50.9753 78.1348 50.9557 77.8385 50.9297 77.5C50.9102 77.1549 50.8841 76.7904 50.8516 76.4062C50.8255 76.0156 50.7962 75.638 50.7637 75.2734C50.7311 74.9023 50.6986 74.5638 50.666 74.2578C50.64 73.9518 50.6139 73.7109 50.5879 73.5352C50.5553 73.3398 50.513 73.1868 50.4609 73.0762C50.4154 72.959 50.3568 72.8711 50.2852 72.8125C50.2201 72.7539 50.1419 72.7181 50.0508 72.7051C49.9596 72.6855 49.8587 72.6758 49.748 72.6758C49.6309 72.6758 49.4518 72.6855 49.2109 72.7051C48.9766 72.7246 48.7096 72.7507 48.4102 72.7832C48.1172 72.8092 47.8079 72.8418 47.4824 72.8809C47.1634 72.9199 46.8607 72.959 46.5742 72.998C46.2943 73.0371 46.0436 73.0762 45.8223 73.1152C45.6009 73.1543 45.4479 73.1901 45.3633 73.2227C45.2396 73.2617 45.1419 73.3138 45.0703 73.3789C44.9987 73.444 44.9466 73.5156 44.9141 73.5938C44.8815 73.6654 44.8587 73.7435 44.8457 73.8281C44.8392 73.9062 44.8327 73.9844 44.8262 74.0625C44.8262 74.2513 44.8262 74.5085 44.8262 74.834C44.8327 75.1595 44.8359 75.5208 44.8359 75.918C44.8424 76.3086 44.849 76.722 44.8555 77.1582C44.862 77.5879 44.8652 78.0046 44.8652 78.4082C44.8717 78.8118 44.875 79.1862 44.875 79.5312C44.8815 79.8698 44.8848 80.1465 44.8848 80.3613C44.8848 80.6673 44.9043 80.9147 44.9434 81.1035C44.9824 81.2923 45.0345 81.4421 45.0996 81.5527C45.1647 81.6699 45.2428 81.7611 45.334 81.8262C45.4251 81.8978 45.5228 81.9629 45.627 82.0215C45.7376 82.0801 45.8418 82.1322 45.9395 82.1777C46.0371 82.2298 46.0859 82.2982 46.0859 82.3828C46.0859 82.4349 46.0632 82.4707 46.0176 82.4902C45.9785 82.5098 45.9297 82.5195 45.8711 82.5195C45.7344 82.5195 45.5911 82.5 45.4414 82.4609C45.2982 82.4219 45.1289 82.3796 44.9336 82.334C44.7383 82.2949 44.5039 82.2559 44.2305 82.2168C43.9635 82.1777 43.6413 82.1582 43.2637 82.1582C42.873 82.1582 42.5117 82.181 42.1797 82.2266C41.8542 82.2721 41.5612 82.321 41.3008 82.373C41.0404 82.4316 40.8158 82.4837 40.627 82.5293C40.4382 82.5749 40.2852 82.5977 40.168 82.5977C39.9271 82.5977 39.8066 82.513 39.8066 82.3438C39.8066 82.2396 39.8327 82.1647 39.8848 82.1191C39.9434 82.0736 40.0182 82.0345 40.1094 82.002C40.1484 81.9889 40.2135 81.9727 40.3047 81.9531C40.3958 81.9336 40.5033 81.9108 40.627 81.8848C40.7572 81.8652 40.8971 81.8392 41.0469 81.8066C41.1966 81.7741 41.3496 81.7383 41.5059 81.6992C41.7142 81.6471 41.877 81.5755 41.9941 81.4844C42.1113 81.3932 42.196 81.2891 42.248 81.1719C42.3066 81.0612 42.3424 80.9408 42.3555 80.8105C42.3685 80.6803 42.3783 80.5501 42.3848 80.4199C42.3848 80.3809 42.388 80.2474 42.3945 80.0195C42.401 79.7982 42.4108 79.5182 42.4238 79.1797C42.4368 78.8346 42.4499 78.444 42.4629 78.0078C42.4759 77.5651 42.4889 77.1094 42.502 76.6406C42.515 76.1654 42.5247 75.6934 42.5312 75.2246C42.5378 74.7493 42.5443 74.3001 42.5508 73.877C42.5508 73.7793 42.5508 73.6198 42.5508 73.3984C42.5573 73.1706 42.5605 72.9004 42.5605 72.5879C42.5605 72.2754 42.5605 71.9271 42.5605 71.543C42.5671 71.1589 42.5703 70.7585 42.5703 70.3418C42.5703 69.7884 42.5671 69.2253 42.5605 68.6523C42.5605 68.0794 42.554 67.5456 42.541 67.0508C42.5345 66.5495 42.5215 66.11 42.502 65.7324C42.4889 65.3548 42.4694 65.0846 42.4434 64.9219C42.4173 64.7331 42.3815 64.5671 42.3359 64.4238C42.2904 64.2741 42.2285 64.1406 42.1504 64.0234C42.0723 63.9062 41.9779 63.7988 41.8672 63.7012C41.763 63.6035 41.6361 63.5091 41.4863 63.418C41.3431 63.3333 41.2064 63.2585 41.0762 63.1934C40.946 63.1283 40.8288 63.0697 40.7246 63.0176C40.627 62.9655 40.5488 62.9134 40.4902 62.8613C40.4316 62.8027 40.4023 62.7409 40.4023 62.6758C40.4023 62.6172 40.4219 62.5716 40.4609 62.5391C40.5 62.5 40.5684 62.4805 40.666 62.4805ZM62.5801 63.6035C62.6257 63.6035 62.6777 63.6589 62.7363 63.7695C62.7949 63.8802 62.8503 64.0104 62.9023 64.1602C62.9609 64.3034 63.013 64.4499 63.0586 64.5996C63.1107 64.7428 63.1497 64.8503 63.1758 64.9219C63.319 65.3451 63.4785 65.8236 63.6543 66.3574C63.8301 66.8913 64.0156 67.4609 64.2109 68.0664C64.4128 68.6719 64.6211 69.3034 64.8359 69.9609C65.0573 70.612 65.2754 71.2663 65.4902 71.9238C65.7116 72.5749 65.9297 73.2194 66.1445 73.8574C66.3594 74.4954 66.5645 75.1042 66.7598 75.6836C66.9551 76.2565 67.1374 76.7871 67.3066 77.2754C67.4824 77.7572 67.6387 78.1771 67.7754 78.5352C67.9316 78.9583 68.0846 79.2969 68.2344 79.5508C68.3841 79.8047 68.5436 80.0065 68.7129 80.1562C68.8822 80.306 69.0677 80.4167 69.2695 80.4883C69.4779 80.5599 69.7155 80.625 69.9824 80.6836C70.1777 80.7227 70.2754 80.7943 70.2754 80.8984C70.2754 80.9701 70.2396 81.0189 70.168 81.0449C70.0964 81.071 70.015 81.084 69.9238 81.084C69.7806 81.084 69.5983 81.0807 69.377 81.0742C69.1556 81.0677 68.9017 81.0645 68.6152 81.0645C68.3874 81.0645 68.14 81.0677 67.873 81.0742C67.6126 81.0872 67.3424 81.1035 67.0625 81.123C66.6263 81.1556 66.2227 81.2077 65.8516 81.2793C65.4805 81.3574 65.1452 81.4323 64.8457 81.5039C64.5462 81.582 64.2826 81.6504 64.0547 81.709C63.8333 81.7676 63.6543 81.7969 63.5176 81.7969C63.446 81.7969 63.3874 81.7773 63.3418 81.7383C63.3027 81.7057 63.2832 81.6602 63.2832 81.6016C63.2832 81.5169 63.306 81.4486 63.3516 81.3965C63.3971 81.3444 63.485 81.2988 63.6152 81.2598C63.6673 81.2467 63.7422 81.2272 63.8398 81.2012C63.9375 81.1751 64.0449 81.1458 64.1621 81.1133C64.2793 81.0807 64.3997 81.0417 64.5234 80.9961C64.6536 80.957 64.7708 80.9115 64.875 80.8594C65.0052 80.7878 65.1224 80.6934 65.2266 80.5762C65.3307 80.459 65.3828 80.2799 65.3828 80.0391C65.3828 79.987 65.3763 79.9154 65.3633 79.8242C65.3568 79.7331 65.3438 79.6517 65.3242 79.5801C65.207 79.1243 65.0866 78.6621 64.9629 78.1934C64.8392 77.7246 64.7155 77.2786 64.5918 76.8555C64.4681 76.4323 64.3509 76.0417 64.2402 75.6836C64.1296 75.3255 64.0286 75.0326 63.9375 74.8047C63.7878 74.4271 63.6152 74.1406 63.4199 73.9453C63.2246 73.7435 63.0098 73.5872 62.7754 73.4766C62.7103 73.4505 62.6029 73.4082 62.4531 73.3496C62.3034 73.291 62.1243 73.2292 61.916 73.1641C61.7142 73.0924 61.4961 73.0176 61.2617 72.9395C61.0273 72.8613 60.7962 72.7865 60.5684 72.7148C60.3405 72.6367 60.1257 72.5684 59.9238 72.5098C59.7285 72.4447 59.5658 72.3893 59.4355 72.3438C59.2793 72.8451 59.123 73.3431 58.9668 73.8379C58.8171 74.3262 58.6771 74.7786 58.5469 75.1953C58.4232 75.6055 58.3125 75.9668 58.2148 76.2793C58.1237 76.5918 58.0586 76.8197 58.0195 76.9629C57.9674 77.1322 57.9316 77.2852 57.9121 77.4219C57.8926 77.5586 57.8828 77.679 57.8828 77.7832C57.8828 77.972 57.9089 78.1315 57.9609 78.2617C58.0195 78.3854 58.0944 78.4928 58.1855 78.584C58.2767 78.6686 58.3809 78.7435 58.498 78.8086C58.6217 78.8672 58.7487 78.9258 58.8789 78.9844C58.9896 79.0365 59.0872 79.0951 59.1719 79.1602C59.2565 79.2188 59.2988 79.2936 59.2988 79.3848C59.2988 79.4434 59.2728 79.4954 59.2207 79.541C59.1751 79.5801 59.1003 79.5996 58.9961 79.5996C58.8854 79.5996 58.7454 79.5736 58.5762 79.5215C58.4069 79.4694 58.2181 79.4043 58.0098 79.3262C57.8079 79.248 57.5931 79.1667 57.3652 79.082C57.1374 78.9909 56.9095 78.9095 56.6816 78.8379C56.4993 78.7858 56.3105 78.7402 56.1152 78.7012C55.9199 78.6556 55.7311 78.6198 55.5488 78.5938C55.3665 78.5677 55.2005 78.5482 55.0508 78.5352C54.9076 78.5156 54.7969 78.5026 54.7188 78.4961C54.556 78.4831 54.4388 78.4603 54.3672 78.4277C54.2956 78.3952 54.2598 78.3333 54.2598 78.2422C54.2598 78.1771 54.2793 78.125 54.3184 78.0859C54.3639 78.0404 54.4388 78.0176 54.543 78.0176C54.582 78.0176 54.6504 78.0208 54.748 78.0273C54.8522 78.0339 54.9694 78.0371 55.0996 78.0371C55.4121 78.0371 55.6725 78.0176 55.8809 77.9785C56.0892 77.9395 56.265 77.8776 56.4082 77.793C56.5514 77.7083 56.6686 77.6042 56.7598 77.4805C56.8574 77.3503 56.9453 77.1973 57.0234 77.0215C57.1016 76.8522 57.196 76.6276 57.3066 76.3477C57.4173 76.0612 57.5345 75.752 57.6582 75.4199C57.7884 75.0814 57.9186 74.7331 58.0488 74.375C58.179 74.0104 58.2995 73.6686 58.4102 73.3496C58.5273 73.0241 58.6283 72.7376 58.7129 72.4902C58.7975 72.2363 58.8594 72.0475 58.8984 71.9238C58.9505 71.7546 59.0221 71.5234 59.1133 71.2305C59.2109 70.931 59.3184 70.599 59.4355 70.2344C59.5527 69.8698 59.6699 69.4922 59.7871 69.1016C59.9108 68.7044 60.0215 68.3268 60.1191 67.9688C60.2233 67.6042 60.3047 67.2754 60.3633 66.9824C60.4284 66.6829 60.4609 66.4486 60.4609 66.2793C60.4609 66.1491 60.4251 66.0417 60.3535 65.957C60.2819 65.8659 60.1647 65.8203 60.002 65.8203C59.8587 65.8203 59.696 65.8301 59.5137 65.8496C59.3379 65.8691 59.1589 65.8887 58.9766 65.9082C58.7943 65.9277 58.6152 65.9473 58.4395 65.9668C58.2702 65.9863 58.1237 65.9961 58 65.9961C57.7591 65.9961 57.6387 65.9115 57.6387 65.7422C57.6387 65.5859 57.7526 65.498 57.9805 65.4785C58.1367 65.472 58.3125 65.4557 58.5078 65.4297C58.7096 65.4036 58.9212 65.3678 59.1426 65.3223C59.3639 65.2767 59.5853 65.2214 59.8066 65.1562C60.0345 65.0846 60.2526 65 60.4609 64.9023C60.793 64.7526 61.0762 64.5996 61.3105 64.4434C61.5449 64.2871 61.7435 64.1471 61.9062 64.0234C62.0755 63.8997 62.2122 63.7988 62.3164 63.7207C62.4271 63.6426 62.515 63.6035 62.5801 63.6035ZM59.6016 71.8164C59.8034 71.888 60.0605 71.9792 60.373 72.0898C60.6921 72.194 61.0143 72.2982 61.3398 72.4023C61.6654 72.5 61.9648 72.5846 62.2383 72.6562C62.5182 72.7279 62.7201 72.7637 62.8438 72.7637C62.9219 72.7637 62.9902 72.7376 63.0488 72.6855C63.1074 72.627 63.1367 72.5391 63.1367 72.4219C63.1367 72.3242 63.1074 72.1484 63.0488 71.8945C62.9902 71.6341 62.9154 71.3411 62.8242 71.0156C62.7396 70.6836 62.6452 70.3385 62.541 69.9805C62.4368 69.6159 62.3392 69.2806 62.248 68.9746C62.1569 68.6686 62.0788 68.4147 62.0137 68.2129C61.9551 68.0046 61.9225 67.8874 61.916 67.8613C61.89 67.7832 61.8542 67.6725 61.8086 67.5293C61.7695 67.3796 61.724 67.2331 61.6719 67.0898C61.6263 66.9466 61.5775 66.8229 61.5254 66.7188C61.4798 66.6146 61.444 66.5625 61.418 66.5625C61.3919 66.5625 61.3561 66.5983 61.3105 66.6699C61.2715 66.7415 61.2292 66.8294 61.1836 66.9336C61.138 67.0312 61.0924 67.1387 61.0469 67.2559C61.0013 67.373 60.9655 67.4805 60.9395 67.5781L59.6016 71.8164ZM67.4727 62.5586C67.6094 62.5586 67.7689 62.5749 67.9512 62.6074C68.1335 62.6335 68.3255 62.666 68.5273 62.7051C68.7357 62.7441 68.9505 62.7865 69.1719 62.832C69.3932 62.8776 69.6178 62.9134 69.8457 62.9395C70.2168 62.9915 70.5814 63.0404 70.9395 63.0859C71.2975 63.125 71.6719 63.1608 72.0625 63.1934C72.4596 63.2194 72.8828 63.2422 73.332 63.2617C73.7812 63.2747 74.2793 63.2812 74.8262 63.2812C75.5163 63.2812 76.099 63.2585 76.5742 63.2129C77.0495 63.1673 77.4596 63.1185 77.8047 63.0664C78.1497 63.0078 78.4492 62.9557 78.7031 62.9102C78.9635 62.8646 79.224 62.8418 79.4844 62.8418C79.7708 62.8418 79.9596 62.9069 80.0508 63.0371C80.1419 63.1673 80.1875 63.3496 80.1875 63.584C80.1875 63.7988 80.1777 64.0625 80.1582 64.375C80.1387 64.681 80.1126 65 80.0801 65.332C80.0475 65.6641 80.0052 65.9961 79.9531 66.3281C79.9076 66.6536 79.8555 66.9466 79.7969 67.207C79.7448 67.4674 79.6862 67.679 79.6211 67.8418C79.556 68.0046 79.4909 68.0827 79.4258 68.0762C79.3477 68.0762 79.2923 67.9427 79.2598 67.6758C79.2337 67.4023 79.2044 67.0052 79.1719 66.4844C79.1523 66.1003 79.1068 65.7617 79.0352 65.4688C78.9635 65.1693 78.8561 64.9154 78.7129 64.707C78.5697 64.4987 78.3841 64.3294 78.1562 64.1992C77.9284 64.069 77.6452 63.9746 77.3066 63.916C77.0267 63.8639 76.7044 63.8314 76.3398 63.8184C75.9818 63.8053 75.6107 63.7988 75.2266 63.7988V76.3965C75.2266 77.0866 75.2656 77.6465 75.3438 78.0762C75.4284 78.5059 75.5326 78.8477 75.6562 79.1016C75.7865 79.3555 75.9264 79.5378 76.0762 79.6484C76.2324 79.7591 76.3822 79.8438 76.5254 79.9023C76.623 79.9414 76.7402 79.974 76.877 80C77.0137 80.026 77.1569 80.0488 77.3066 80.0684C77.4564 80.0879 77.6029 80.1009 77.7461 80.1074C77.8958 80.1204 78.0293 80.1302 78.1465 80.1367C78.4069 80.1497 78.612 80.1693 78.7617 80.1953C78.9115 80.2214 78.9863 80.2897 78.9863 80.4004C78.9863 80.446 78.9733 80.4915 78.9473 80.5371C78.9212 80.5827 78.8724 80.6217 78.8008 80.6543C78.7292 80.6934 78.625 80.7227 78.4883 80.7422C78.3581 80.7682 78.1855 80.7812 77.9707 80.7812C77.6387 80.7812 77.3132 80.7747 76.9941 80.7617C76.6751 80.7487 76.3529 80.7422 76.0273 80.7422C75.5326 80.7422 75.054 80.7747 74.5918 80.8398C74.1296 80.9115 73.6738 81.0156 73.2246 81.1523C72.7754 81.2891 72.3229 81.4583 71.8672 81.6602C71.4115 81.8685 70.946 82.1094 70.4707 82.3828C70.321 82.474 70.168 82.5553 70.0117 82.627C69.862 82.7051 69.7415 82.7441 69.6504 82.7441C69.5658 82.7441 69.5234 82.7018 69.5234 82.6172C69.5234 82.5456 69.5723 82.4609 69.6699 82.3633C69.7741 82.2721 69.9076 82.1647 70.0703 82.041C70.2331 81.9238 70.4186 81.7839 70.627 81.6211C70.8418 81.4583 71.0632 81.2728 71.291 81.0645C71.6165 80.7585 71.877 80.4557 72.0723 80.1562C72.2741 79.8568 72.4303 79.5443 72.541 79.2188C72.6582 78.8932 72.7396 78.5482 72.7852 78.1836C72.8372 77.8125 72.873 77.4056 72.8926 76.9629L73.5469 63.7793C73.2409 63.7728 72.9837 63.7695 72.7754 63.7695C72.5736 63.763 72.3848 63.7598 72.209 63.7598C72.0332 63.7598 71.8542 63.7598 71.6719 63.7598C71.4961 63.7598 71.2878 63.7598 71.0469 63.7598C70.5977 63.7598 70.2168 63.7826 69.9043 63.8281C69.5918 63.8672 69.3281 63.9258 69.1133 64.0039C68.9049 64.082 68.7422 64.1829 68.625 64.3066C68.5078 64.4238 68.4167 64.5638 68.3516 64.7266C68.293 64.8828 68.2572 65.0586 68.2441 65.2539C68.2311 65.4492 68.2246 65.6641 68.2246 65.8984C68.2246 66.1523 68.2376 66.416 68.2637 66.6895C68.2962 66.9564 68.3353 67.2201 68.3809 67.4805C68.4264 67.7409 68.4753 67.9883 68.5273 68.2227C68.5794 68.4505 68.6315 68.6556 68.6836 68.8379C68.7292 69.0072 68.7715 69.1569 68.8105 69.2871C68.8496 69.4173 68.8691 69.528 68.8691 69.6191C68.8691 69.6517 68.8594 69.6908 68.8398 69.7363C68.8268 69.7819 68.791 69.8047 68.7324 69.8047C68.6478 69.8047 68.5566 69.7428 68.459 69.6191C68.3678 69.4954 68.2767 69.3327 68.1855 69.1309C68.0944 68.9225 68.0033 68.6882 67.9121 68.4277C67.821 68.1673 67.7331 67.9004 67.6484 67.627C67.5703 67.347 67.4954 67.0736 67.4238 66.8066C67.3522 66.5332 67.2871 66.2858 67.2285 66.0645C67.0853 65.5111 66.9779 65 66.9062 64.5312C66.8411 64.0625 66.8086 63.6849 66.8086 63.3984C66.8086 63.138 66.8509 62.9329 66.9355 62.7832C67.0267 62.6335 67.2057 62.5586 67.4727 62.5586ZM86.0664 62.5586C86.2031 62.5586 86.3626 62.5749 86.5449 62.6074C86.7272 62.6335 86.9193 62.666 87.1211 62.7051C87.3294 62.7441 87.5443 62.7865 87.7656 62.832C87.987 62.8776 88.2116 62.9134 88.4395 62.9395C88.8105 62.9915 89.1751 63.0404 89.5332 63.0859C89.8913 63.125 90.2656 63.1608 90.6562 63.1934C91.0534 63.2194 91.4766 63.2422 91.9258 63.2617C92.375 63.2747 92.873 63.2812 93.4199 63.2812C94.11 63.2812 94.6927 63.2585 95.168 63.2129C95.6432 63.1673 96.0534 63.1185 96.3984 63.0664C96.7435 63.0078 97.043 62.9557 97.2969 62.9102C97.5573 62.8646 97.8177 62.8418 98.0781 62.8418C98.3646 62.8418 98.5534 62.9069 98.6445 63.0371C98.7357 63.1673 98.7812 63.3496 98.7812 63.584C98.7812 63.7988 98.7715 64.0625 98.752 64.375C98.7324 64.681 98.7064 65 98.6738 65.332C98.6413 65.6641 98.599 65.9961 98.5469 66.3281C98.5013 66.6536 98.4492 66.9466 98.3906 67.207C98.3385 67.4674 98.2799 67.679 98.2148 67.8418C98.1497 68.0046 98.0846 68.0827 98.0195 68.0762C97.9414 68.0762 97.8861 67.9427 97.8535 67.6758C97.8275 67.4023 97.7982 67.0052 97.7656 66.4844C97.7461 66.1003 97.7005 65.7617 97.6289 65.4688C97.5573 65.1693 97.4499 64.9154 97.3066 64.707C97.1634 64.4987 96.9779 64.3294 96.75 64.1992C96.5221 64.069 96.2389 63.9746 95.9004 63.916C95.6204 63.8639 95.2982 63.8314 94.9336 63.8184C94.5755 63.8053 94.2044 63.7988 93.8203 63.7988V76.3965C93.8203 77.0866 93.8594 77.6465 93.9375 78.0762C94.0221 78.5059 94.1263 78.8477 94.25 79.1016C94.3802 79.3555 94.5202 79.5378 94.6699 79.6484C94.8262 79.7591 94.9759 79.8438 95.1191 79.9023C95.2168 79.9414 95.334 79.974 95.4707 80C95.6074 80.026 95.7507 80.0488 95.9004 80.0684C96.0501 80.0879 96.1966 80.1009 96.3398 80.1074C96.4896 80.1204 96.623 80.1302 96.7402 80.1367C97.0007 80.1497 97.2057 80.1693 97.3555 80.1953C97.5052 80.2214 97.5801 80.2897 97.5801 80.4004C97.5801 80.446 97.5671 80.4915 97.541 80.5371C97.515 80.5827 97.4661 80.6217 97.3945 80.6543C97.3229 80.6934 97.2188 80.7227 97.082 80.7422C96.9518 80.7682 96.7793 80.7812 96.5645 80.7812C96.2324 80.7812 95.9069 80.7747 95.5879 80.7617C95.2689 80.7487 94.9466 80.7422 94.6211 80.7422C94.1263 80.7422 93.6478 80.7747 93.1855 80.8398C92.7233 80.9115 92.2676 81.0156 91.8184 81.1523C91.3691 81.2891 90.9167 81.4583 90.4609 81.6602C90.0052 81.8685 89.5397 82.1094 89.0645 82.3828C88.9147 82.474 88.7617 82.5553 88.6055 82.627C88.4557 82.7051 88.3353 82.7441 88.2441 82.7441C88.1595 82.7441 88.1172 82.7018 88.1172 82.6172C88.1172 82.5456 88.166 82.4609 88.2637 82.3633C88.3678 82.2721 88.5013 82.1647 88.6641 82.041C88.8268 81.9238 89.0124 81.7839 89.2207 81.6211C89.4355 81.4583 89.6569 81.2728 89.8848 81.0645C90.2103 80.7585 90.4707 80.4557 90.666 80.1562C90.8678 79.8568 91.0241 79.5443 91.1348 79.2188C91.252 78.8932 91.3333 78.5482 91.3789 78.1836C91.431 77.8125 91.4668 77.4056 91.4863 76.9629L92.1406 63.7793C91.8346 63.7728 91.5775 63.7695 91.3691 63.7695C91.1673 63.763 90.9785 63.7598 90.8027 63.7598C90.627 63.7598 90.4479 63.7598 90.2656 63.7598C90.0898 63.7598 89.8815 63.7598 89.6406 63.7598C89.1914 63.7598 88.8105 63.7826 88.498 63.8281C88.1855 63.8672 87.9219 63.9258 87.707 64.0039C87.4987 64.082 87.3359 64.1829 87.2188 64.3066C87.1016 64.4238 87.0104 64.5638 86.9453 64.7266C86.8867 64.8828 86.8509 65.0586 86.8379 65.2539C86.8249 65.4492 86.8184 65.6641 86.8184 65.8984C86.8184 66.1523 86.8314 66.416 86.8574 66.6895C86.89 66.9564 86.929 67.2201 86.9746 67.4805C87.0202 67.7409 87.069 67.9883 87.1211 68.2227C87.1732 68.4505 87.2253 68.6556 87.2773 68.8379C87.3229 69.0072 87.3652 69.1569 87.4043 69.2871C87.4434 69.4173 87.4629 69.528 87.4629 69.6191C87.4629 69.6517 87.4531 69.6908 87.4336 69.7363C87.4206 69.7819 87.3848 69.8047 87.3262 69.8047C87.2415 69.8047 87.1504 69.7428 87.0527 69.6191C86.9616 69.4954 86.8704 69.3327 86.7793 69.1309C86.6882 68.9225 86.597 68.6882 86.5059 68.4277C86.4147 68.1673 86.3268 67.9004 86.2422 67.627C86.1641 67.347 86.0892 67.0736 86.0176 66.8066C85.946 66.5332 85.8809 66.2858 85.8223 66.0645C85.679 65.5111 85.5716 65 85.5 64.5312C85.4349 64.0625 85.4023 63.6849 85.4023 63.3984C85.4023 63.138 85.4447 62.9329 85.5293 62.7832C85.6204 62.6335 85.7995 62.5586 86.0664 62.5586ZM99.0449 62.4805C99.1621 62.4805 99.3151 62.513 99.5039 62.5781C99.6992 62.6432 99.9271 62.7246 100.188 62.8223C100.454 62.9134 100.751 63.0111 101.076 63.1152C101.408 63.2129 101.766 63.3008 102.15 63.3789C102.528 63.457 102.925 63.5221 103.342 63.5742C103.765 63.6198 104.162 63.6589 104.533 63.6914C104.904 63.7174 105.23 63.7402 105.51 63.7598C105.796 63.7793 105.988 63.7923 106.086 63.7988C106.177 63.8118 106.249 63.8314 106.301 63.8574C106.359 63.877 106.389 63.9193 106.389 63.9844C106.389 64.056 106.359 64.1048 106.301 64.1309C106.242 64.1504 106.177 64.1602 106.105 64.1602C105.962 64.1602 105.751 64.1504 105.471 64.1309C105.197 64.1113 104.908 64.1016 104.602 64.1016C104.374 64.1016 104.172 64.1243 103.996 64.1699C103.827 64.209 103.684 64.2773 103.566 64.375C103.456 64.4727 103.368 64.6029 103.303 64.7656C103.238 64.9219 103.199 65.1204 103.186 65.3613C103.173 65.498 103.163 65.6771 103.156 65.8984C103.156 66.1133 103.153 66.3542 103.146 66.6211C103.146 66.888 103.146 67.1745 103.146 67.4805C103.146 67.7799 103.146 68.0859 103.146 68.3984C103.146 68.776 103.146 69.1439 103.146 69.502C103.146 69.86 103.146 70.1888 103.146 70.4883C103.146 70.7878 103.146 71.0417 103.146 71.25C103.153 71.4583 103.16 71.6016 103.166 71.6797C103.173 71.849 103.192 71.9857 103.225 72.0898C103.257 72.194 103.303 72.2754 103.361 72.334C103.42 72.3926 103.488 72.4316 103.566 72.4512C103.645 72.4707 103.732 72.4805 103.83 72.4805C104.012 72.4805 104.234 72.474 104.494 72.4609C104.755 72.4414 105.031 72.4186 105.324 72.3926C105.624 72.3665 105.923 72.3372 106.223 72.3047C106.522 72.2656 106.799 72.2331 107.053 72.207C107.313 72.1745 107.541 72.1452 107.736 72.1191C107.932 72.0931 108.068 72.0736 108.146 72.0605C108.368 72.0215 108.544 71.9466 108.674 71.8359C108.804 71.7253 108.898 71.5918 108.957 71.4355C109.022 71.2793 109.061 71.1035 109.074 70.9082C109.094 70.7064 109.104 70.498 109.104 70.2832C109.104 69.9902 109.09 69.6908 109.064 69.3848C109.045 69.0723 109.019 68.776 108.986 68.4961C108.954 68.2161 108.918 67.9622 108.879 67.7344C108.846 67.5065 108.82 67.334 108.801 67.2168C108.762 66.9629 108.703 66.7676 108.625 66.6309C108.547 66.4876 108.459 66.3835 108.361 66.3184C108.27 66.2467 108.173 66.2044 108.068 66.1914C107.971 66.1719 107.883 66.1621 107.805 66.1621C107.583 66.1621 107.355 66.1686 107.121 66.1816C106.893 66.1947 106.714 66.2012 106.584 66.2012C106.454 66.2012 106.353 66.1751 106.281 66.123C106.216 66.071 106.184 66.0026 106.184 65.918C106.184 65.8464 106.21 65.778 106.262 65.7129C106.32 65.6478 106.454 65.6087 106.662 65.5957C106.857 65.5892 107.076 65.5794 107.316 65.5664C107.564 65.5469 107.821 65.5241 108.088 65.498C108.361 65.4655 108.638 65.4297 108.918 65.3906C109.198 65.3516 109.475 65.3027 109.748 65.2441C109.995 65.1855 110.259 65.1172 110.539 65.0391C110.826 64.9544 111.102 64.8763 111.369 64.8047C111.643 64.7266 111.896 64.6615 112.131 64.6094C112.365 64.5508 112.557 64.5215 112.707 64.5215C112.857 64.5215 112.951 64.5443 112.99 64.5898C113.029 64.6354 113.049 64.6842 113.049 64.7363C113.049 64.8275 113.01 64.8926 112.932 64.9316C112.86 64.9642 112.779 64.9805 112.688 64.9805C112.642 64.9805 112.58 64.9837 112.502 64.9902C112.424 64.9967 112.342 65.0098 112.258 65.0293C112.173 65.0423 112.089 65.0618 112.004 65.0879C111.919 65.1139 111.848 65.1497 111.789 65.1953C111.685 65.2799 111.587 65.3971 111.496 65.5469C111.411 65.6901 111.346 65.9082 111.301 66.2012C111.268 66.4355 111.242 66.7318 111.223 67.0898C111.21 67.4414 111.197 67.8125 111.184 68.2031C111.171 68.5938 111.158 68.9844 111.145 69.375C111.138 69.7656 111.132 70.1139 111.125 70.4199C111.118 70.5762 111.109 70.8073 111.096 71.1133C111.089 71.4128 111.083 71.7611 111.076 72.1582C111.07 72.5488 111.06 72.9785 111.047 73.4473C111.04 73.9095 111.034 74.3815 111.027 74.8633C111.021 75.3385 111.014 75.8171 111.008 76.2988C111.008 76.7741 111.008 77.2201 111.008 77.6367C111.008 77.9883 111.008 78.3105 111.008 78.6035C111.008 78.8965 111.014 79.1471 111.027 79.3555C111.034 79.5638 111.06 79.7363 111.105 79.873C111.158 80.0033 111.216 80.1074 111.281 80.1855C111.346 80.2702 111.415 80.332 111.486 80.3711C111.564 80.4167 111.636 80.4525 111.701 80.4785C111.844 80.5306 111.997 80.5697 112.16 80.5957C112.323 80.6217 112.499 80.6576 112.688 80.7031C112.779 80.7227 112.837 80.7454 112.863 80.7715C112.889 80.804 112.902 80.8398 112.902 80.8789C112.902 80.8919 112.899 80.9082 112.893 80.9277C112.886 80.9538 112.87 80.9766 112.844 80.9961C112.824 81.0156 112.788 81.0319 112.736 81.0449C112.684 81.0579 112.613 81.0645 112.521 81.0645C112.443 81.0645 112.303 81.0547 112.102 81.0352C111.906 81.0221 111.685 81.0026 111.438 80.9766C111.19 80.957 110.936 80.9375 110.676 80.918C110.415 80.9049 110.184 80.8984 109.982 80.8984C109.715 80.8984 109.452 80.9082 109.191 80.9277C108.931 80.9538 108.684 80.9798 108.449 81.0059C108.215 81.0384 107.993 81.0645 107.785 81.084C107.577 81.11 107.391 81.123 107.229 81.123C106.955 81.123 106.779 81.0872 106.701 81.0156C106.623 80.9505 106.584 80.8789 106.584 80.8008C106.584 80.6966 106.623 80.6283 106.701 80.5957C106.786 80.5697 106.887 80.5566 107.004 80.5566C107.375 80.5436 107.684 80.5241 107.932 80.498C108.186 80.4785 108.423 80.4199 108.645 80.3223C108.807 80.2441 108.938 80.1497 109.035 80.0391C109.139 79.9349 109.214 79.821 109.26 79.6973C109.312 79.5671 109.344 79.4368 109.357 79.3066C109.377 79.1699 109.387 79.0397 109.387 78.916C109.387 78.8184 109.38 78.6426 109.367 78.3887C109.354 78.1348 109.335 77.8385 109.309 77.5C109.289 77.1549 109.263 76.7904 109.23 76.4062C109.204 76.0156 109.175 75.638 109.143 75.2734C109.11 74.9023 109.077 74.5638 109.045 74.2578C109.019 73.9518 108.993 73.7109 108.967 73.5352C108.934 73.3398 108.892 73.1868 108.84 73.0762C108.794 72.959 108.736 72.8711 108.664 72.8125C108.599 72.7539 108.521 72.7181 108.43 72.7051C108.339 72.6855 108.238 72.6758 108.127 72.6758C108.01 72.6758 107.831 72.6855 107.59 72.7051C107.355 72.7246 107.089 72.7507 106.789 72.7832C106.496 72.8092 106.187 72.8418 105.861 72.8809C105.542 72.9199 105.24 72.959 104.953 72.998C104.673 73.0371 104.423 73.0762 104.201 73.1152C103.98 73.1543 103.827 73.1901 103.742 73.2227C103.618 73.2617 103.521 73.3138 103.449 73.3789C103.378 73.444 103.326 73.5156 103.293 73.5938C103.26 73.6654 103.238 73.7435 103.225 73.8281C103.218 73.9062 103.212 73.9844 103.205 74.0625C103.205 74.2513 103.205 74.5085 103.205 74.834C103.212 75.1595 103.215 75.5208 103.215 75.918C103.221 76.3086 103.228 76.722 103.234 77.1582C103.241 77.5879 103.244 78.0046 103.244 78.4082C103.251 78.8118 103.254 79.1862 103.254 79.5312C103.26 79.8698 103.264 80.1465 103.264 80.3613C103.264 80.6673 103.283 80.9147 103.322 81.1035C103.361 81.2923 103.413 81.4421 103.479 81.5527C103.544 81.6699 103.622 81.7611 103.713 81.8262C103.804 81.8978 103.902 81.9629 104.006 82.0215C104.117 82.0801 104.221 82.1322 104.318 82.1777C104.416 82.2298 104.465 82.2982 104.465 82.3828C104.465 82.4349 104.442 82.4707 104.396 82.4902C104.357 82.5098 104.309 82.5195 104.25 82.5195C104.113 82.5195 103.97 82.5 103.82 82.4609C103.677 82.4219 103.508 82.3796 103.312 82.334C103.117 82.2949 102.883 82.2559 102.609 82.2168C102.342 82.1777 102.02 82.1582 101.643 82.1582C101.252 82.1582 100.891 82.181 100.559 82.2266C100.233 82.2721 99.9401 82.321 99.6797 82.373C99.4193 82.4316 99.1947 82.4837 99.0059 82.5293C98.8171 82.5749 98.6641 82.5977 98.5469 82.5977C98.306 82.5977 98.1855 82.513 98.1855 82.3438C98.1855 82.2396 98.2116 82.1647 98.2637 82.1191C98.3223 82.0736 98.3971 82.0345 98.4883 82.002C98.5273 81.9889 98.5924 81.9727 98.6836 81.9531C98.7747 81.9336 98.8822 81.9108 99.0059 81.8848C99.1361 81.8652 99.276 81.8392 99.4258 81.8066C99.5755 81.7741 99.7285 81.7383 99.8848 81.6992C100.093 81.6471 100.256 81.5755 100.373 81.4844C100.49 81.3932 100.575 81.2891 100.627 81.1719C100.686 81.0612 100.721 80.9408 100.734 80.8105C100.747 80.6803 100.757 80.5501 100.764 80.4199C100.764 80.3809 100.767 80.2474 100.773 80.0195C100.78 79.7982 100.79 79.5182 100.803 79.1797C100.816 78.8346 100.829 78.444 100.842 78.0078C100.855 77.5651 100.868 77.1094 100.881 76.6406C100.894 76.1654 100.904 75.6934 100.91 75.2246C100.917 74.7493 100.923 74.3001 100.93 73.877C100.93 73.7793 100.93 73.6198 100.93 73.3984C100.936 73.1706 100.939 72.9004 100.939 72.5879C100.939 72.2754 100.939 71.9271 100.939 71.543C100.946 71.1589 100.949 70.7585 100.949 70.3418C100.949 69.7884 100.946 69.2253 100.939 68.6523C100.939 68.0794 100.933 67.5456 100.92 67.0508C100.913 66.5495 100.9 66.11 100.881 65.7324C100.868 65.3548 100.848 65.0846 100.822 64.9219C100.796 64.7331 100.76 64.5671 100.715 64.4238C100.669 64.2741 100.607 64.1406 100.529 64.0234C100.451 63.9062 100.357 63.7988 100.246 63.7012C100.142 63.6035 100.015 63.5091 99.8652 63.418C99.722 63.3333 99.5853 63.2585 99.4551 63.1934C99.3249 63.1283 99.2077 63.0697 99.1035 63.0176C99.0059 62.9655 98.9277 62.9134 98.8691 62.8613C98.8105 62.8027 98.7812 62.7409 98.7812 62.6758C98.7812 62.6172 98.8008 62.5716 98.8398 62.5391C98.8789 62.5 98.9473 62.4805 99.0449 62.4805ZM122.854 63.9648C122.951 63.9648 123.016 63.9876 123.049 64.0332C123.088 64.0788 123.107 64.1471 123.107 64.2383C123.107 64.3555 123.098 64.4889 123.078 64.6387C123.065 64.7884 123.049 64.9772 123.029 65.2051C123.01 65.4264 122.99 65.6966 122.971 66.0156C122.958 66.3281 122.951 66.709 122.951 67.1582C122.951 67.2428 122.938 67.3177 122.912 67.3828C122.886 67.4479 122.837 67.4805 122.766 67.4805C122.661 67.4805 122.59 67.373 122.551 67.1582C122.518 67.0215 122.489 66.849 122.463 66.6406C122.443 66.4258 122.411 66.1654 122.365 65.8594C122.333 65.612 122.277 65.4199 122.199 65.2832C122.128 65.1465 122.036 65.0456 121.926 64.9805C121.822 64.9154 121.708 64.8763 121.584 64.8633C121.46 64.8503 121.337 64.8438 121.213 64.8438C120.959 64.8438 120.666 64.8568 120.334 64.8828C120.008 64.9023 119.689 64.9284 119.377 64.9609C119.064 64.987 118.781 65.0163 118.527 65.0488C118.28 65.0814 118.107 65.1107 118.01 65.1367C117.801 65.1888 117.671 65.2767 117.619 65.4004C117.574 65.5176 117.551 65.6576 117.551 65.8203C117.551 65.9635 117.554 66.1719 117.561 66.4453C117.567 66.7122 117.577 67.0215 117.59 67.373C117.603 67.7181 117.619 68.0924 117.639 68.4961C117.658 68.8932 117.674 69.2936 117.688 69.6973C117.707 70.1009 117.723 70.4915 117.736 70.8691C117.756 71.2467 117.772 71.5853 117.785 71.8848C117.928 71.9043 118.091 71.9238 118.273 71.9434C118.462 71.9564 118.648 71.9629 118.83 71.9629C119.045 71.9629 119.224 71.9499 119.367 71.9238C119.517 71.8913 119.641 71.849 119.738 71.7969C119.842 71.7448 119.924 71.6829 119.982 71.6113C120.041 71.5332 120.09 71.4486 120.129 71.3574C120.168 71.2598 120.194 71.1654 120.207 71.0742C120.227 70.9831 120.246 70.8789 120.266 70.7617C120.285 70.638 120.314 70.5566 120.354 70.5176C120.393 70.4785 120.432 70.459 120.471 70.459C120.562 70.459 120.607 70.5404 120.607 70.7031C120.607 70.8464 120.598 71.0221 120.578 71.2305C120.565 71.4388 120.549 71.6569 120.529 71.8848C120.51 72.1126 120.49 72.3438 120.471 72.5781C120.458 72.8125 120.451 73.0273 120.451 73.2227C120.451 73.3984 120.451 73.5742 120.451 73.75C120.458 73.9258 120.464 74.0885 120.471 74.2383C120.477 74.388 120.48 74.5215 120.48 74.6387C120.487 74.7559 120.49 74.8438 120.49 74.9023C120.49 74.9935 120.471 75.0814 120.432 75.166C120.399 75.2441 120.337 75.2832 120.246 75.2832C120.096 75.2832 120.012 75.1497 119.992 74.8828C119.986 74.8177 119.979 74.7266 119.973 74.6094C119.973 74.4922 119.969 74.3685 119.963 74.2383C119.956 74.1081 119.943 73.9779 119.924 73.8477C119.911 73.7174 119.891 73.6068 119.865 73.5156C119.833 73.4049 119.774 73.2975 119.689 73.1934C119.605 73.0827 119.471 72.998 119.289 72.9395C119.211 72.9134 119.113 72.8906 118.996 72.8711C118.885 72.8516 118.762 72.8353 118.625 72.8223C118.495 72.8092 118.358 72.7995 118.215 72.793C118.078 72.7799 117.948 72.7702 117.824 72.7637C117.844 73.0892 117.867 73.4928 117.893 73.9746C117.925 74.4499 117.958 74.9544 117.99 75.4883C118.029 76.0156 118.068 76.5495 118.107 77.0898C118.146 77.6302 118.182 78.125 118.215 78.5742C118.247 79.0234 118.273 79.4043 118.293 79.7168C118.319 80.0228 118.339 80.2116 118.352 80.2832C118.378 80.5501 118.446 80.7454 118.557 80.8691C118.667 80.9928 118.843 81.071 119.084 81.1035C119.344 81.1426 119.66 81.1621 120.031 81.1621C120.526 81.1621 120.962 81.1361 121.34 81.084C121.717 81.0319 122.046 80.9408 122.326 80.8105C122.606 80.6803 122.844 80.5046 123.039 80.2832C123.234 80.0684 123.397 79.7949 123.527 79.4629C123.599 79.2871 123.658 79.1146 123.703 78.9453C123.755 78.7695 123.798 78.6133 123.83 78.4766C123.869 78.3398 123.905 78.2292 123.938 78.1445C123.97 78.0599 124.006 78.0176 124.045 78.0176C124.097 78.0176 124.133 78.0794 124.152 78.2031C124.178 78.3203 124.191 78.4603 124.191 78.623C124.191 78.8574 124.178 79.1178 124.152 79.4043C124.133 79.6842 124.104 79.9609 124.064 80.2344C124.025 80.5078 123.98 80.7617 123.928 80.9961C123.882 81.2305 123.837 81.4128 123.791 81.543C123.706 81.7513 123.592 81.8945 123.449 81.9727C123.306 82.0573 123.114 82.0996 122.873 82.0996C122.665 82.0996 122.382 82.0801 122.023 82.041C121.665 82.0085 121.252 81.9661 120.783 81.9141C120.321 81.8685 119.82 81.8197 119.279 81.7676C118.745 81.7155 118.195 81.6732 117.629 81.6406C117.193 81.6146 116.776 81.5951 116.379 81.582C115.988 81.569 115.63 81.5592 115.305 81.5527C114.979 81.5462 114.696 81.543 114.455 81.543C114.214 81.543 114.025 81.543 113.889 81.543C113.706 81.543 113.586 81.5169 113.527 81.4648C113.475 81.4193 113.449 81.3574 113.449 81.2793C113.449 81.1816 113.485 81.1133 113.557 81.0742C113.628 81.0352 113.719 81.0156 113.83 81.0156C113.902 81.0156 114.022 81.0221 114.191 81.0352C114.367 81.0547 114.579 81.0645 114.826 81.0645C114.911 81.0645 114.995 81.0612 115.08 81.0547C115.171 81.0547 115.269 81.0482 115.373 81.0352C115.607 81.0286 115.786 80.9863 115.91 80.9082C116.04 80.8366 116.135 80.7487 116.193 80.6445C116.252 80.5469 116.285 80.4427 116.291 80.332C116.304 80.2214 116.311 80.1237 116.311 80.0391C116.298 79.4076 116.262 78.7337 116.203 78.0176C116.151 77.2949 116.092 76.5918 116.027 75.9082C115.969 75.2246 115.907 74.5964 115.842 74.0234C115.783 73.4505 115.738 72.9948 115.705 72.6562C115.686 72.4349 115.66 72.1712 115.627 71.8652C115.594 71.5527 115.555 71.2207 115.51 70.8691C115.471 70.5176 115.425 70.1595 115.373 69.7949C115.327 69.4238 115.279 69.0658 115.227 68.7207C115.181 68.3691 115.132 68.0436 115.08 67.7441C115.035 67.4447 114.992 67.1908 114.953 66.9824C114.901 66.7285 114.842 66.5104 114.777 66.3281C114.719 66.1458 114.654 65.9863 114.582 65.8496C114.51 65.7129 114.432 65.5957 114.348 65.498C114.27 65.4004 114.182 65.3158 114.084 65.2441C114.012 65.1855 113.928 65.1302 113.83 65.0781C113.732 65.0195 113.638 64.9642 113.547 64.9121C113.462 64.86 113.391 64.8112 113.332 64.7656C113.273 64.7135 113.244 64.6582 113.244 64.5996C113.244 64.4954 113.332 64.4434 113.508 64.4434C113.599 64.4434 113.726 64.4564 113.889 64.4824C114.051 64.502 114.253 64.5247 114.494 64.5508C114.742 64.5768 115.031 64.6029 115.363 64.6289C115.702 64.6484 116.089 64.6582 116.525 64.6582C116.864 64.6582 117.245 64.6419 117.668 64.6094C118.091 64.5703 118.524 64.528 118.967 64.4824C119.416 64.4303 119.859 64.375 120.295 64.3164C120.731 64.2513 121.128 64.196 121.486 64.1504C121.844 64.0983 122.144 64.056 122.385 64.0234C122.632 63.9844 122.788 63.9648 122.854 63.9648ZM135.334 67.3047C135.393 67.3047 135.432 67.321 135.451 67.3535C135.477 67.3861 135.49 67.4219 135.49 67.4609C135.49 67.5391 135.435 67.6497 135.324 67.793C135.214 67.9362 135.09 68.1055 134.953 68.3008C134.816 68.4896 134.693 68.6947 134.582 68.916C134.471 69.1374 134.416 69.3587 134.416 69.5801C134.416 69.8079 134.445 70.0618 134.504 70.3418C134.562 70.6217 134.634 70.9115 134.719 71.2109C134.81 71.5039 134.908 71.7936 135.012 72.0801C135.116 72.3665 135.217 72.627 135.314 72.8613C135.347 72.959 135.406 73.1087 135.49 73.3105C135.575 73.5059 135.669 73.724 135.773 73.9648C135.878 74.2057 135.988 74.4531 136.105 74.707C136.229 74.9609 136.346 75.1953 136.457 75.4102C136.568 75.6185 136.669 75.791 136.76 75.9277C136.851 76.0579 136.923 76.123 136.975 76.123C137.027 76.123 137.098 76.0677 137.189 75.957C137.281 75.8398 137.385 75.6803 137.502 75.4785C137.626 75.2702 137.766 75.0293 137.922 74.7559C138.085 74.4759 138.26 74.1699 138.449 73.8379C138.742 73.3236 138.999 72.8613 139.221 72.4512C139.449 72.041 139.644 71.6927 139.807 71.4062C139.969 71.1198 140.103 70.9017 140.207 70.752C140.311 70.5957 140.393 70.5176 140.451 70.5176C140.51 70.5176 140.585 70.5664 140.676 70.6641C140.773 70.7617 140.91 70.9375 141.086 71.1914C141.268 71.4453 141.503 71.7936 141.789 72.2363C142.082 72.679 142.456 73.2454 142.912 73.9355C142.984 74.0462 143.085 74.2057 143.215 74.4141C143.352 74.6224 143.501 74.8535 143.664 75.1074C143.827 75.3613 143.996 75.6217 144.172 75.8887C144.354 76.1491 144.523 76.3867 144.68 76.6016C144.842 76.8164 144.986 76.9954 145.109 77.1387C145.24 77.2754 145.334 77.3438 145.393 77.3438C145.458 77.3438 145.549 77.2591 145.666 77.0898C145.783 76.9141 145.91 76.7025 146.047 76.4551C146.184 76.2012 146.32 75.9342 146.457 75.6543C146.6 75.3743 146.724 75.1237 146.828 74.9023C146.874 74.8047 146.952 74.6354 147.062 74.3945C147.173 74.1536 147.3 73.8639 147.443 73.5254C147.593 73.1868 147.756 72.8125 147.932 72.4023C148.107 71.9857 148.28 71.5592 148.449 71.123C148.625 70.6868 148.794 70.2507 148.957 69.8145C149.12 69.3717 149.263 68.9551 149.387 68.5645C149.517 68.1738 149.618 67.8223 149.689 67.5098C149.768 67.1908 149.807 66.9336 149.807 66.7383C149.807 66.569 149.751 66.416 149.641 66.2793C149.53 66.1426 149.374 66.0221 149.172 65.918C148.866 65.7617 148.592 65.6348 148.352 65.5371C148.117 65.4329 147.915 65.3451 147.746 65.2734C147.583 65.1953 147.46 65.127 147.375 65.0684C147.29 65.0033 147.248 64.9284 147.248 64.8438C147.248 64.7721 147.274 64.7168 147.326 64.6777C147.378 64.6387 147.44 64.6191 147.512 64.6191C147.609 64.6191 147.736 64.6484 147.893 64.707C148.049 64.7591 148.254 64.8275 148.508 64.9121C148.768 64.9902 149.09 65.0781 149.475 65.1758C149.865 65.2734 150.344 65.3613 150.91 65.4395C151.359 65.498 151.773 65.5404 152.15 65.5664C152.528 65.5859 152.883 65.5957 153.215 65.5957C153.417 65.5957 153.586 65.5924 153.723 65.5859C153.859 65.5794 153.97 65.5762 154.055 65.5762C154.237 65.5762 154.361 65.6022 154.426 65.6543C154.497 65.6999 154.533 65.7617 154.533 65.8398C154.533 65.918 154.507 65.9798 154.455 66.0254C154.403 66.0645 154.338 66.097 154.26 66.123C154.188 66.1491 154.107 66.1654 154.016 66.1719C153.931 66.1784 153.85 66.1816 153.771 66.1816C153.433 66.1816 153.143 66.1914 152.902 66.2109C152.668 66.224 152.46 66.2565 152.277 66.3086C152.102 66.3542 151.942 66.429 151.799 66.5332C151.656 66.6309 151.512 66.7611 151.369 66.9238C151.219 67.0931 151.047 67.3535 150.852 67.7051C150.656 68.0501 150.448 68.457 150.227 68.9258C150.005 69.388 149.771 69.8926 149.523 70.4395C149.283 70.9863 149.038 71.543 148.791 72.1094C148.55 72.6693 148.309 73.2227 148.068 73.7695C147.827 74.3164 147.596 74.821 147.375 75.2832C147.238 75.5697 147.072 75.9277 146.877 76.3574C146.688 76.7806 146.486 77.2298 146.271 77.7051C146.057 78.1803 145.839 78.6556 145.617 79.1309C145.402 79.5996 145.197 80.0228 145.002 80.4004C144.807 80.778 144.634 81.084 144.484 81.3184C144.335 81.5592 144.224 81.6797 144.152 81.6797C144.042 81.6797 143.863 81.4453 143.615 80.9766C143.374 80.5143 143.052 79.8503 142.648 78.9844C142.401 78.444 142.163 77.9167 141.936 77.4023C141.714 76.8815 141.503 76.3932 141.301 75.9375C141.105 75.4753 140.926 75.0521 140.764 74.668C140.601 74.2839 140.454 73.9518 140.324 73.6719C140.194 73.3919 140.083 73.1738 139.992 73.0176C139.901 72.8613 139.833 72.7832 139.787 72.7832C139.742 72.7832 139.66 72.8711 139.543 73.0469C139.432 73.2227 139.299 73.4473 139.143 73.7207C138.993 73.9941 138.833 74.2969 138.664 74.6289C138.495 74.9609 138.332 75.2799 138.176 75.5859C138.02 75.8919 137.88 76.1686 137.756 76.416C137.632 76.6634 137.544 76.8392 137.492 76.9434L136.027 79.7168C135.936 79.8796 135.858 79.9935 135.793 80.0586C135.734 80.1237 135.673 80.1562 135.607 80.1562C135.497 80.1562 135.393 80.0391 135.295 79.8047C135.217 79.6224 135.129 79.4108 135.031 79.1699C134.94 78.929 134.842 78.6719 134.738 78.3984C134.641 78.1185 134.536 77.832 134.426 77.5391C134.322 77.2396 134.217 76.9466 134.113 76.6602C133.924 76.1328 133.755 75.6217 133.605 75.127C133.456 74.6257 133.309 74.1536 133.166 73.7109C133.023 73.2617 132.876 72.8516 132.727 72.4805C132.577 72.1094 132.411 71.7904 132.229 71.5234C132.046 71.25 131.838 71.0384 131.604 70.8887C131.376 70.7389 131.112 70.6641 130.812 70.6641C130.663 70.6641 130.516 70.6738 130.373 70.6934C130.236 70.7064 130.103 70.7227 129.973 70.7422C129.849 70.7617 129.732 70.7812 129.621 70.8008C129.517 70.8138 129.426 70.8203 129.348 70.8203C129.126 70.8203 129.016 70.7389 129.016 70.5762C129.016 70.485 129.045 70.4199 129.104 70.3809C129.162 70.3353 129.237 70.2962 129.328 70.2637C129.445 70.2246 129.602 70.1888 129.797 70.1562C129.992 70.1237 130.217 70.0749 130.471 70.0098C130.731 69.9447 131.021 69.8568 131.34 69.7461C131.659 69.6354 132.004 69.4857 132.375 69.2969C132.896 69.0365 133.329 68.7858 133.674 68.5449C134.019 68.304 134.302 68.0924 134.523 67.9102C134.751 67.7214 134.924 67.5749 135.041 67.4707C135.165 67.36 135.262 67.3047 135.334 67.3047ZM163.361 63.9648C163.459 63.9648 163.524 63.9876 163.557 64.0332C163.596 64.0788 163.615 64.1471 163.615 64.2383C163.615 64.3555 163.605 64.4889 163.586 64.6387C163.573 64.7884 163.557 64.9772 163.537 65.2051C163.518 65.4264 163.498 65.6966 163.479 66.0156C163.465 66.3281 163.459 66.709 163.459 67.1582C163.459 67.2428 163.446 67.3177 163.42 67.3828C163.394 67.4479 163.345 67.4805 163.273 67.4805C163.169 67.4805 163.098 67.373 163.059 67.1582C163.026 67.0215 162.997 66.849 162.971 66.6406C162.951 66.4258 162.919 66.1654 162.873 65.8594C162.84 65.612 162.785 65.4199 162.707 65.2832C162.635 65.1465 162.544 65.0456 162.434 64.9805C162.329 64.9154 162.215 64.8763 162.092 64.8633C161.968 64.8503 161.844 64.8438 161.721 64.8438C161.467 64.8438 161.174 64.8568 160.842 64.8828C160.516 64.9023 160.197 64.9284 159.885 64.9609C159.572 64.987 159.289 65.0163 159.035 65.0488C158.788 65.0814 158.615 65.1107 158.518 65.1367C158.309 65.1888 158.179 65.2767 158.127 65.4004C158.081 65.5176 158.059 65.6576 158.059 65.8203C158.059 65.9635 158.062 66.1719 158.068 66.4453C158.075 66.7122 158.085 67.0215 158.098 67.373C158.111 67.7181 158.127 68.0924 158.146 68.4961C158.166 68.8932 158.182 69.2936 158.195 69.6973C158.215 70.1009 158.231 70.4915 158.244 70.8691C158.264 71.2467 158.28 71.5853 158.293 71.8848C158.436 71.9043 158.599 71.9238 158.781 71.9434C158.97 71.9564 159.156 71.9629 159.338 71.9629C159.553 71.9629 159.732 71.9499 159.875 71.9238C160.025 71.8913 160.148 71.849 160.246 71.7969C160.35 71.7448 160.432 71.6829 160.49 71.6113C160.549 71.5332 160.598 71.4486 160.637 71.3574C160.676 71.2598 160.702 71.1654 160.715 71.0742C160.734 70.9831 160.754 70.8789 160.773 70.7617C160.793 70.638 160.822 70.5566 160.861 70.5176C160.9 70.4785 160.939 70.459 160.979 70.459C161.07 70.459 161.115 70.5404 161.115 70.7031C161.115 70.8464 161.105 71.0221 161.086 71.2305C161.073 71.4388 161.057 71.6569 161.037 71.8848C161.018 72.1126 160.998 72.3438 160.979 72.5781C160.965 72.8125 160.959 73.0273 160.959 73.2227C160.959 73.3984 160.959 73.5742 160.959 73.75C160.965 73.9258 160.972 74.0885 160.979 74.2383C160.985 74.388 160.988 74.5215 160.988 74.6387C160.995 74.7559 160.998 74.8438 160.998 74.9023C160.998 74.9935 160.979 75.0814 160.939 75.166C160.907 75.2441 160.845 75.2832 160.754 75.2832C160.604 75.2832 160.52 75.1497 160.5 74.8828C160.493 74.8177 160.487 74.7266 160.48 74.6094C160.48 74.4922 160.477 74.3685 160.471 74.2383C160.464 74.1081 160.451 73.9779 160.432 73.8477C160.419 73.7174 160.399 73.6068 160.373 73.5156C160.34 73.4049 160.282 73.2975 160.197 73.1934C160.113 73.0827 159.979 72.998 159.797 72.9395C159.719 72.9134 159.621 72.8906 159.504 72.8711C159.393 72.8516 159.27 72.8353 159.133 72.8223C159.003 72.8092 158.866 72.7995 158.723 72.793C158.586 72.7799 158.456 72.7702 158.332 72.7637C158.352 73.0892 158.374 73.4928 158.4 73.9746C158.433 74.4499 158.465 74.9544 158.498 75.4883C158.537 76.0156 158.576 76.5495 158.615 77.0898C158.654 77.6302 158.69 78.125 158.723 78.5742C158.755 79.0234 158.781 79.4043 158.801 79.7168C158.827 80.0228 158.846 80.2116 158.859 80.2832C158.885 80.5501 158.954 80.7454 159.064 80.8691C159.175 80.9928 159.351 81.071 159.592 81.1035C159.852 81.1426 160.168 81.1621 160.539 81.1621C161.034 81.1621 161.47 81.1361 161.848 81.084C162.225 81.0319 162.554 80.9408 162.834 80.8105C163.114 80.6803 163.352 80.5046 163.547 80.2832C163.742 80.0684 163.905 79.7949 164.035 79.4629C164.107 79.2871 164.165 79.1146 164.211 78.9453C164.263 78.7695 164.305 78.6133 164.338 78.4766C164.377 78.3398 164.413 78.2292 164.445 78.1445C164.478 78.0599 164.514 78.0176 164.553 78.0176C164.605 78.0176 164.641 78.0794 164.66 78.2031C164.686 78.3203 164.699 78.4603 164.699 78.623C164.699 78.8574 164.686 79.1178 164.66 79.4043C164.641 79.6842 164.611 79.9609 164.572 80.2344C164.533 80.5078 164.488 80.7617 164.436 80.9961C164.39 81.2305 164.344 81.4128 164.299 81.543C164.214 81.7513 164.1 81.8945 163.957 81.9727C163.814 82.0573 163.622 82.0996 163.381 82.0996C163.173 82.0996 162.889 82.0801 162.531 82.041C162.173 82.0085 161.76 81.9661 161.291 81.9141C160.829 81.8685 160.327 81.8197 159.787 81.7676C159.253 81.7155 158.703 81.6732 158.137 81.6406C157.701 81.6146 157.284 81.5951 156.887 81.582C156.496 81.569 156.138 81.5592 155.812 81.5527C155.487 81.5462 155.204 81.543 154.963 81.543C154.722 81.543 154.533 81.543 154.396 81.543C154.214 81.543 154.094 81.5169 154.035 81.4648C153.983 81.4193 153.957 81.3574 153.957 81.2793C153.957 81.1816 153.993 81.1133 154.064 81.0742C154.136 81.0352 154.227 81.0156 154.338 81.0156C154.41 81.0156 154.53 81.0221 154.699 81.0352C154.875 81.0547 155.087 81.0645 155.334 81.0645C155.419 81.0645 155.503 81.0612 155.588 81.0547C155.679 81.0547 155.777 81.0482 155.881 81.0352C156.115 81.0286 156.294 80.9863 156.418 80.9082C156.548 80.8366 156.643 80.7487 156.701 80.6445C156.76 80.5469 156.792 80.4427 156.799 80.332C156.812 80.2214 156.818 80.1237 156.818 80.0391C156.805 79.4076 156.77 78.7337 156.711 78.0176C156.659 77.2949 156.6 76.5918 156.535 75.9082C156.477 75.2246 156.415 74.5964 156.35 74.0234C156.291 73.4505 156.245 72.9948 156.213 72.6562C156.193 72.4349 156.167 72.1712 156.135 71.8652C156.102 71.5527 156.063 71.2207 156.018 70.8691C155.979 70.5176 155.933 70.1595 155.881 69.7949C155.835 69.4238 155.786 69.0658 155.734 68.7207C155.689 68.3691 155.64 68.0436 155.588 67.7441C155.542 67.4447 155.5 67.1908 155.461 66.9824C155.409 66.7285 155.35 66.5104 155.285 66.3281C155.227 66.1458 155.161 65.9863 155.09 65.8496C155.018 65.7129 154.94 65.5957 154.855 65.498C154.777 65.4004 154.689 65.3158 154.592 65.2441C154.52 65.1855 154.436 65.1302 154.338 65.0781C154.24 65.0195 154.146 64.9642 154.055 64.9121C153.97 64.86 153.898 64.8112 153.84 64.7656C153.781 64.7135 153.752 64.6582 153.752 64.5996C153.752 64.4954 153.84 64.4434 154.016 64.4434C154.107 64.4434 154.234 64.4564 154.396 64.4824C154.559 64.502 154.761 64.5247 155.002 64.5508C155.249 64.5768 155.539 64.6029 155.871 64.6289C156.21 64.6484 156.597 64.6582 157.033 64.6582C157.372 64.6582 157.753 64.6419 158.176 64.6094C158.599 64.5703 159.032 64.528 159.475 64.4824C159.924 64.4303 160.367 64.375 160.803 64.3164C161.239 64.2513 161.636 64.196 161.994 64.1504C162.352 64.0983 162.652 64.056 162.893 64.0234C163.14 63.9844 163.296 63.9648 163.361 63.9648ZM173.381 63.6035C173.426 63.6035 173.479 63.6589 173.537 63.7695C173.596 63.8802 173.651 64.0104 173.703 64.1602C173.762 64.3034 173.814 64.4499 173.859 64.5996C173.911 64.7428 173.951 64.8503 173.977 64.9219C174.12 65.3451 174.279 65.8236 174.455 66.3574C174.631 66.8913 174.816 67.4609 175.012 68.0664C175.214 68.6719 175.422 69.3034 175.637 69.9609C175.858 70.612 176.076 71.2663 176.291 71.9238C176.512 72.5749 176.73 73.2194 176.945 73.8574C177.16 74.4954 177.365 75.1042 177.561 75.6836C177.756 76.2565 177.938 76.7871 178.107 77.2754C178.283 77.7572 178.439 78.1771 178.576 78.5352C178.732 78.9583 178.885 79.2969 179.035 79.5508C179.185 79.8047 179.344 80.0065 179.514 80.1562C179.683 80.306 179.868 80.4167 180.07 80.4883C180.279 80.5599 180.516 80.625 180.783 80.6836C180.979 80.7227 181.076 80.7943 181.076 80.8984C181.076 80.9701 181.04 81.0189 180.969 81.0449C180.897 81.071 180.816 81.084 180.725 81.084C180.581 81.084 180.399 81.0807 180.178 81.0742C179.956 81.0677 179.702 81.0645 179.416 81.0645C179.188 81.0645 178.941 81.0677 178.674 81.0742C178.413 81.0872 178.143 81.1035 177.863 81.123C177.427 81.1556 177.023 81.2077 176.652 81.2793C176.281 81.3574 175.946 81.4323 175.646 81.5039C175.347 81.582 175.083 81.6504 174.855 81.709C174.634 81.7676 174.455 81.7969 174.318 81.7969C174.247 81.7969 174.188 81.7773 174.143 81.7383C174.104 81.7057 174.084 81.6602 174.084 81.6016C174.084 81.5169 174.107 81.4486 174.152 81.3965C174.198 81.3444 174.286 81.2988 174.416 81.2598C174.468 81.2467 174.543 81.2272 174.641 81.2012C174.738 81.1751 174.846 81.1458 174.963 81.1133C175.08 81.0807 175.201 81.0417 175.324 80.9961C175.454 80.957 175.572 80.9115 175.676 80.8594C175.806 80.7878 175.923 80.6934 176.027 80.5762C176.132 80.459 176.184 80.2799 176.184 80.0391C176.184 79.987 176.177 79.9154 176.164 79.8242C176.158 79.7331 176.145 79.6517 176.125 79.5801C176.008 79.1243 175.887 78.6621 175.764 78.1934C175.64 77.7246 175.516 77.2786 175.393 76.8555C175.269 76.4323 175.152 76.0417 175.041 75.6836C174.93 75.3255 174.829 75.0326 174.738 74.8047C174.589 74.4271 174.416 74.1406 174.221 73.9453C174.025 73.7435 173.811 73.5872 173.576 73.4766C173.511 73.4505 173.404 73.4082 173.254 73.3496C173.104 73.291 172.925 73.2292 172.717 73.1641C172.515 73.0924 172.297 73.0176 172.062 72.9395C171.828 72.8613 171.597 72.7865 171.369 72.7148C171.141 72.6367 170.926 72.5684 170.725 72.5098C170.529 72.4447 170.367 72.3893 170.236 72.3438C170.08 72.8451 169.924 73.3431 169.768 73.8379C169.618 74.3262 169.478 74.7786 169.348 75.1953C169.224 75.6055 169.113 75.9668 169.016 76.2793C168.924 76.5918 168.859 76.8197 168.82 76.9629C168.768 77.1322 168.732 77.2852 168.713 77.4219C168.693 77.5586 168.684 77.679 168.684 77.7832C168.684 77.972 168.71 78.1315 168.762 78.2617C168.82 78.3854 168.895 78.4928 168.986 78.584C169.077 78.6686 169.182 78.7435 169.299 78.8086C169.423 78.8672 169.549 78.9258 169.68 78.9844C169.79 79.0365 169.888 79.0951 169.973 79.1602C170.057 79.2188 170.1 79.2936 170.1 79.3848C170.1 79.4434 170.074 79.4954 170.021 79.541C169.976 79.5801 169.901 79.5996 169.797 79.5996C169.686 79.5996 169.546 79.5736 169.377 79.5215C169.208 79.4694 169.019 79.4043 168.811 79.3262C168.609 79.248 168.394 79.1667 168.166 79.082C167.938 78.9909 167.71 78.9095 167.482 78.8379C167.3 78.7858 167.111 78.7402 166.916 78.7012C166.721 78.6556 166.532 78.6198 166.35 78.5938C166.167 78.5677 166.001 78.5482 165.852 78.5352C165.708 78.5156 165.598 78.5026 165.52 78.4961C165.357 78.4831 165.24 78.4603 165.168 78.4277C165.096 78.3952 165.061 78.3333 165.061 78.2422C165.061 78.1771 165.08 78.125 165.119 78.0859C165.165 78.0404 165.24 78.0176 165.344 78.0176C165.383 78.0176 165.451 78.0208 165.549 78.0273C165.653 78.0339 165.77 78.0371 165.9 78.0371C166.213 78.0371 166.473 78.0176 166.682 77.9785C166.89 77.9395 167.066 77.8776 167.209 77.793C167.352 77.7083 167.469 77.6042 167.561 77.4805C167.658 77.3503 167.746 77.1973 167.824 77.0215C167.902 76.8522 167.997 76.6276 168.107 76.3477C168.218 76.0612 168.335 75.752 168.459 75.4199C168.589 75.0814 168.719 74.7331 168.85 74.375C168.98 74.0104 169.1 73.6686 169.211 73.3496C169.328 73.0241 169.429 72.7376 169.514 72.4902C169.598 72.2363 169.66 72.0475 169.699 71.9238C169.751 71.7546 169.823 71.5234 169.914 71.2305C170.012 70.931 170.119 70.599 170.236 70.2344C170.354 69.8698 170.471 69.4922 170.588 69.1016C170.712 68.7044 170.822 68.3268 170.92 67.9688C171.024 67.6042 171.105 67.2754 171.164 66.9824C171.229 66.6829 171.262 66.4486 171.262 66.2793C171.262 66.1491 171.226 66.0417 171.154 65.957C171.083 65.8659 170.965 65.8203 170.803 65.8203C170.66 65.8203 170.497 65.8301 170.314 65.8496C170.139 65.8691 169.96 65.8887 169.777 65.9082C169.595 65.9277 169.416 65.9473 169.24 65.9668C169.071 65.9863 168.924 65.9961 168.801 65.9961C168.56 65.9961 168.439 65.9115 168.439 65.7422C168.439 65.5859 168.553 65.498 168.781 65.4785C168.938 65.472 169.113 65.4557 169.309 65.4297C169.51 65.4036 169.722 65.3678 169.943 65.3223C170.165 65.2767 170.386 65.2214 170.607 65.1562C170.835 65.0846 171.053 65 171.262 64.9023C171.594 64.7526 171.877 64.5996 172.111 64.4434C172.346 64.2871 172.544 64.1471 172.707 64.0234C172.876 63.8997 173.013 63.7988 173.117 63.7207C173.228 63.6426 173.316 63.6035 173.381 63.6035ZM170.402 71.8164C170.604 71.888 170.861 71.9792 171.174 72.0898C171.493 72.194 171.815 72.2982 172.141 72.4023C172.466 72.5 172.766 72.5846 173.039 72.6562C173.319 72.7279 173.521 72.7637 173.645 72.7637C173.723 72.7637 173.791 72.7376 173.85 72.6855C173.908 72.627 173.938 72.5391 173.938 72.4219C173.938 72.3242 173.908 72.1484 173.85 71.8945C173.791 71.6341 173.716 71.3411 173.625 71.0156C173.54 70.6836 173.446 70.3385 173.342 69.9805C173.238 69.6159 173.14 69.2806 173.049 68.9746C172.958 68.6686 172.88 68.4147 172.814 68.2129C172.756 68.0046 172.723 67.8874 172.717 67.8613C172.691 67.7832 172.655 67.6725 172.609 67.5293C172.57 67.3796 172.525 67.2331 172.473 67.0898C172.427 66.9466 172.378 66.8229 172.326 66.7188C172.281 66.6146 172.245 66.5625 172.219 66.5625C172.193 66.5625 172.157 66.5983 172.111 66.6699C172.072 66.7415 172.03 66.8294 171.984 66.9336C171.939 67.0312 171.893 67.1387 171.848 67.2559C171.802 67.373 171.766 67.4805 171.74 67.5781L170.402 71.8164ZM178.273 62.5586C178.41 62.5586 178.57 62.5749 178.752 62.6074C178.934 62.6335 179.126 62.666 179.328 62.7051C179.536 62.7441 179.751 62.7865 179.973 62.832C180.194 62.8776 180.419 62.9134 180.646 62.9395C181.018 62.9915 181.382 63.0404 181.74 63.0859C182.098 63.125 182.473 63.1608 182.863 63.1934C183.26 63.2194 183.684 63.2422 184.133 63.2617C184.582 63.2747 185.08 63.2812 185.627 63.2812C186.317 63.2812 186.9 63.2585 187.375 63.2129C187.85 63.1673 188.26 63.1185 188.605 63.0664C188.951 63.0078 189.25 62.9557 189.504 62.9102C189.764 62.8646 190.025 62.8418 190.285 62.8418C190.572 62.8418 190.76 62.9069 190.852 63.0371C190.943 63.1673 190.988 63.3496 190.988 63.584C190.988 63.7988 190.979 64.0625 190.959 64.375C190.939 64.681 190.913 65 190.881 65.332C190.848 65.6641 190.806 65.9961 190.754 66.3281C190.708 66.6536 190.656 66.9466 190.598 67.207C190.546 67.4674 190.487 67.679 190.422 67.8418C190.357 68.0046 190.292 68.0827 190.227 68.0762C190.148 68.0762 190.093 67.9427 190.061 67.6758C190.035 67.4023 190.005 67.0052 189.973 66.4844C189.953 66.1003 189.908 65.7617 189.836 65.4688C189.764 65.1693 189.657 64.9154 189.514 64.707C189.37 64.4987 189.185 64.3294 188.957 64.1992C188.729 64.069 188.446 63.9746 188.107 63.916C187.827 63.8639 187.505 63.8314 187.141 63.8184C186.783 63.8053 186.411 63.7988 186.027 63.7988V76.3965C186.027 77.0866 186.066 77.6465 186.145 78.0762C186.229 78.5059 186.333 78.8477 186.457 79.1016C186.587 79.3555 186.727 79.5378 186.877 79.6484C187.033 79.7591 187.183 79.8438 187.326 79.9023C187.424 79.9414 187.541 79.974 187.678 80C187.814 80.026 187.958 80.0488 188.107 80.0684C188.257 80.0879 188.404 80.1009 188.547 80.1074C188.697 80.1204 188.83 80.1302 188.947 80.1367C189.208 80.1497 189.413 80.1693 189.562 80.1953C189.712 80.2214 189.787 80.2897 189.787 80.4004C189.787 80.446 189.774 80.4915 189.748 80.5371C189.722 80.5827 189.673 80.6217 189.602 80.6543C189.53 80.6934 189.426 80.7227 189.289 80.7422C189.159 80.7682 188.986 80.7812 188.771 80.7812C188.439 80.7812 188.114 80.7747 187.795 80.7617C187.476 80.7487 187.154 80.7422 186.828 80.7422C186.333 80.7422 185.855 80.7747 185.393 80.8398C184.93 80.9115 184.475 81.0156 184.025 81.1523C183.576 81.2891 183.124 81.4583 182.668 81.6602C182.212 81.8685 181.747 82.1094 181.271 82.3828C181.122 82.474 180.969 82.5553 180.812 82.627C180.663 82.7051 180.542 82.7441 180.451 82.7441C180.367 82.7441 180.324 82.7018 180.324 82.6172C180.324 82.5456 180.373 82.4609 180.471 82.3633C180.575 82.2721 180.708 82.1647 180.871 82.041C181.034 81.9238 181.219 81.7839 181.428 81.6211C181.643 81.4583 181.864 81.2728 182.092 81.0645C182.417 80.7585 182.678 80.4557 182.873 80.1562C183.075 79.8568 183.231 79.5443 183.342 79.2188C183.459 78.8932 183.54 78.5482 183.586 78.1836C183.638 77.8125 183.674 77.4056 183.693 76.9629L184.348 63.7793C184.042 63.7728 183.785 63.7695 183.576 63.7695C183.374 63.763 183.186 63.7598 183.01 63.7598C182.834 63.7598 182.655 63.7598 182.473 63.7598C182.297 63.7598 182.089 63.7598 181.848 63.7598C181.398 63.7598 181.018 63.7826 180.705 63.8281C180.393 63.8672 180.129 63.9258 179.914 64.0039C179.706 64.082 179.543 64.1829 179.426 64.3066C179.309 64.4238 179.217 64.5638 179.152 64.7266C179.094 64.8828 179.058 65.0586 179.045 65.2539C179.032 65.4492 179.025 65.6641 179.025 65.8984C179.025 66.1523 179.038 66.416 179.064 66.6895C179.097 66.9564 179.136 67.2201 179.182 67.4805C179.227 67.7409 179.276 67.9883 179.328 68.2227C179.38 68.4505 179.432 68.6556 179.484 68.8379C179.53 69.0072 179.572 69.1569 179.611 69.2871C179.65 69.4173 179.67 69.528 179.67 69.6191C179.67 69.6517 179.66 69.6908 179.641 69.7363C179.628 69.7819 179.592 69.8047 179.533 69.8047C179.449 69.8047 179.357 69.7428 179.26 69.6191C179.169 69.4954 179.077 69.3327 178.986 69.1309C178.895 68.9225 178.804 68.6882 178.713 68.4277C178.622 68.1673 178.534 67.9004 178.449 67.627C178.371 67.347 178.296 67.0736 178.225 66.8066C178.153 66.5332 178.088 66.2858 178.029 66.0645C177.886 65.5111 177.779 65 177.707 64.5312C177.642 64.0625 177.609 63.6849 177.609 63.3984C177.609 63.138 177.652 62.9329 177.736 62.7832C177.827 62.6335 178.007 62.5586 178.273 62.5586ZM191.252 62.4805C191.369 62.4805 191.522 62.513 191.711 62.5781C191.906 62.6432 192.134 62.7246 192.395 62.8223C192.661 62.9134 192.958 63.0111 193.283 63.1152C193.615 63.2129 193.973 63.3008 194.357 63.3789C194.735 63.457 195.132 63.5221 195.549 63.5742C195.972 63.6198 196.369 63.6589 196.74 63.6914C197.111 63.7174 197.437 63.7402 197.717 63.7598C198.003 63.7793 198.195 63.7923 198.293 63.7988C198.384 63.8118 198.456 63.8314 198.508 63.8574C198.566 63.877 198.596 63.9193 198.596 63.9844C198.596 64.056 198.566 64.1048 198.508 64.1309C198.449 64.1504 198.384 64.1602 198.312 64.1602C198.169 64.1602 197.958 64.1504 197.678 64.1309C197.404 64.1113 197.115 64.1016 196.809 64.1016C196.581 64.1016 196.379 64.1243 196.203 64.1699C196.034 64.209 195.891 64.2773 195.773 64.375C195.663 64.4727 195.575 64.6029 195.51 64.7656C195.445 64.9219 195.406 65.1204 195.393 65.3613C195.38 65.498 195.37 65.6771 195.363 65.8984C195.363 66.1133 195.36 66.3542 195.354 66.6211C195.354 66.888 195.354 67.1745 195.354 67.4805C195.354 67.7799 195.354 68.0859 195.354 68.3984C195.354 68.776 195.354 69.1439 195.354 69.502C195.354 69.86 195.354 70.1888 195.354 70.4883C195.354 70.7878 195.354 71.0417 195.354 71.25C195.36 71.4583 195.367 71.6016 195.373 71.6797C195.38 71.849 195.399 71.9857 195.432 72.0898C195.464 72.194 195.51 72.2754 195.568 72.334C195.627 72.3926 195.695 72.4316 195.773 72.4512C195.852 72.4707 195.939 72.4805 196.037 72.4805C196.219 72.4805 196.441 72.474 196.701 72.4609C196.962 72.4414 197.238 72.4186 197.531 72.3926C197.831 72.3665 198.13 72.3372 198.43 72.3047C198.729 72.2656 199.006 72.2331 199.26 72.207C199.52 72.1745 199.748 72.1452 199.943 72.1191C200.139 72.0931 200.275 72.0736 200.354 72.0605C200.575 72.0215 200.751 71.9466 200.881 71.8359C201.011 71.7253 201.105 71.5918 201.164 71.4355C201.229 71.2793 201.268 71.1035 201.281 70.9082C201.301 70.7064 201.311 70.498 201.311 70.2832C201.311 69.9902 201.298 69.6908 201.271 69.3848C201.252 69.0723 201.226 68.776 201.193 68.4961C201.161 68.2161 201.125 67.9622 201.086 67.7344C201.053 67.5065 201.027 67.334 201.008 67.2168C200.969 66.9629 200.91 66.7676 200.832 66.6309C200.754 66.4876 200.666 66.3835 200.568 66.3184C200.477 66.2467 200.38 66.2044 200.275 66.1914C200.178 66.1719 200.09 66.1621 200.012 66.1621C199.79 66.1621 199.562 66.1686 199.328 66.1816C199.1 66.1947 198.921 66.2012 198.791 66.2012C198.661 66.2012 198.56 66.1751 198.488 66.123C198.423 66.071 198.391 66.0026 198.391 65.918C198.391 65.8464 198.417 65.778 198.469 65.7129C198.527 65.6478 198.661 65.6087 198.869 65.5957C199.064 65.5892 199.283 65.5794 199.523 65.5664C199.771 65.5469 200.028 65.5241 200.295 65.498C200.568 65.4655 200.845 65.4297 201.125 65.3906C201.405 65.3516 201.682 65.3027 201.955 65.2441C202.202 65.1855 202.466 65.1172 202.746 65.0391C203.033 64.9544 203.309 64.8763 203.576 64.8047C203.85 64.7266 204.104 64.6615 204.338 64.6094C204.572 64.5508 204.764 64.5215 204.914 64.5215C205.064 64.5215 205.158 64.5443 205.197 64.5898C205.236 64.6354 205.256 64.6842 205.256 64.7363C205.256 64.8275 205.217 64.8926 205.139 64.9316C205.067 64.9642 204.986 64.9805 204.895 64.9805C204.849 64.9805 204.787 64.9837 204.709 64.9902C204.631 64.9967 204.549 65.0098 204.465 65.0293C204.38 65.0423 204.296 65.0618 204.211 65.0879C204.126 65.1139 204.055 65.1497 203.996 65.1953C203.892 65.2799 203.794 65.3971 203.703 65.5469C203.618 65.6901 203.553 65.9082 203.508 66.2012C203.475 66.4355 203.449 66.7318 203.43 67.0898C203.417 67.4414 203.404 67.8125 203.391 68.2031C203.378 68.5938 203.365 68.9844 203.352 69.375C203.345 69.7656 203.339 70.1139 203.332 70.4199C203.326 70.5762 203.316 70.8073 203.303 71.1133C203.296 71.4128 203.29 71.7611 203.283 72.1582C203.277 72.5488 203.267 72.9785 203.254 73.4473C203.247 73.9095 203.241 74.3815 203.234 74.8633C203.228 75.3385 203.221 75.8171 203.215 76.2988C203.215 76.7741 203.215 77.2201 203.215 77.6367C203.215 77.9883 203.215 78.3105 203.215 78.6035C203.215 78.8965 203.221 79.1471 203.234 79.3555C203.241 79.5638 203.267 79.7363 203.312 79.873C203.365 80.0033 203.423 80.1074 203.488 80.1855C203.553 80.2702 203.622 80.332 203.693 80.3711C203.771 80.4167 203.843 80.4525 203.908 80.4785C204.051 80.5306 204.204 80.5697 204.367 80.5957C204.53 80.6217 204.706 80.6576 204.895 80.7031C204.986 80.7227 205.044 80.7454 205.07 80.7715C205.096 80.804 205.109 80.8398 205.109 80.8789C205.109 80.8919 205.106 80.9082 205.1 80.9277C205.093 80.9538 205.077 80.9766 205.051 80.9961C205.031 81.0156 204.995 81.0319 204.943 81.0449C204.891 81.0579 204.82 81.0645 204.729 81.0645C204.65 81.0645 204.51 81.0547 204.309 81.0352C204.113 81.0221 203.892 81.0026 203.645 80.9766C203.397 80.957 203.143 80.9375 202.883 80.918C202.622 80.9049 202.391 80.8984 202.189 80.8984C201.923 80.8984 201.659 80.9082 201.398 80.9277C201.138 80.9538 200.891 80.9798 200.656 81.0059C200.422 81.0384 200.201 81.0645 199.992 81.084C199.784 81.11 199.598 81.123 199.436 81.123C199.162 81.123 198.986 81.0872 198.908 81.0156C198.83 80.9505 198.791 80.8789 198.791 80.8008C198.791 80.6966 198.83 80.6283 198.908 80.5957C198.993 80.5697 199.094 80.5566 199.211 80.5566C199.582 80.5436 199.891 80.5241 200.139 80.498C200.393 80.4785 200.63 80.4199 200.852 80.3223C201.014 80.2441 201.145 80.1497 201.242 80.0391C201.346 79.9349 201.421 79.821 201.467 79.6973C201.519 79.5671 201.551 79.4368 201.564 79.3066C201.584 79.1699 201.594 79.0397 201.594 78.916C201.594 78.8184 201.587 78.6426 201.574 78.3887C201.561 78.1348 201.542 77.8385 201.516 77.5C201.496 77.1549 201.47 76.7904 201.438 76.4062C201.411 76.0156 201.382 75.638 201.35 75.2734C201.317 74.9023 201.285 74.5638 201.252 74.2578C201.226 73.9518 201.2 73.7109 201.174 73.5352C201.141 73.3398 201.099 73.1868 201.047 73.0762C201.001 72.959 200.943 72.8711 200.871 72.8125C200.806 72.7539 200.728 72.7181 200.637 72.7051C200.546 72.6855 200.445 72.6758 200.334 72.6758C200.217 72.6758 200.038 72.6855 199.797 72.7051C199.562 72.7246 199.296 72.7507 198.996 72.7832C198.703 72.8092 198.394 72.8418 198.068 72.8809C197.749 72.9199 197.447 72.959 197.16 72.998C196.88 73.0371 196.63 73.0762 196.408 73.1152C196.187 73.1543 196.034 73.1901 195.949 73.2227C195.826 73.2617 195.728 73.3138 195.656 73.3789C195.585 73.444 195.533 73.5156 195.5 73.5938C195.467 73.6654 195.445 73.7435 195.432 73.8281C195.425 73.9062 195.419 73.9844 195.412 74.0625C195.412 74.2513 195.412 74.5085 195.412 74.834C195.419 75.1595 195.422 75.5208 195.422 75.918C195.428 76.3086 195.435 76.722 195.441 77.1582C195.448 77.5879 195.451 78.0046 195.451 78.4082C195.458 78.8118 195.461 79.1862 195.461 79.5312C195.467 79.8698 195.471 80.1465 195.471 80.3613C195.471 80.6673 195.49 80.9147 195.529 81.1035C195.568 81.2923 195.62 81.4421 195.686 81.5527C195.751 81.6699 195.829 81.7611 195.92 81.8262C196.011 81.8978 196.109 81.9629 196.213 82.0215C196.324 82.0801 196.428 82.1322 196.525 82.1777C196.623 82.2298 196.672 82.2982 196.672 82.3828C196.672 82.4349 196.649 82.4707 196.604 82.4902C196.564 82.5098 196.516 82.5195 196.457 82.5195C196.32 82.5195 196.177 82.5 196.027 82.4609C195.884 82.4219 195.715 82.3796 195.52 82.334C195.324 82.2949 195.09 82.2559 194.816 82.2168C194.549 82.1777 194.227 82.1582 193.85 82.1582C193.459 82.1582 193.098 82.181 192.766 82.2266C192.44 82.2721 192.147 82.321 191.887 82.373C191.626 82.4316 191.402 82.4837 191.213 82.5293C191.024 82.5749 190.871 82.5977 190.754 82.5977C190.513 82.5977 190.393 82.513 190.393 82.3438C190.393 82.2396 190.419 82.1647 190.471 82.1191C190.529 82.0736 190.604 82.0345 190.695 82.002C190.734 81.9889 190.799 81.9727 190.891 81.9531C190.982 81.9336 191.089 81.9108 191.213 81.8848C191.343 81.8652 191.483 81.8392 191.633 81.8066C191.783 81.7741 191.936 81.7383 192.092 81.6992C192.3 81.6471 192.463 81.5755 192.58 81.4844C192.697 81.3932 192.782 81.2891 192.834 81.1719C192.893 81.0612 192.928 80.9408 192.941 80.8105C192.954 80.6803 192.964 80.5501 192.971 80.4199C192.971 80.3809 192.974 80.2474 192.98 80.0195C192.987 79.7982 192.997 79.5182 193.01 79.1797C193.023 78.8346 193.036 78.444 193.049 78.0078C193.062 77.5651 193.075 77.1094 193.088 76.6406C193.101 76.1654 193.111 75.6934 193.117 75.2246C193.124 74.7493 193.13 74.3001 193.137 73.877C193.137 73.7793 193.137 73.6198 193.137 73.3984C193.143 73.1706 193.146 72.9004 193.146 72.5879C193.146 72.2754 193.146 71.9271 193.146 71.543C193.153 71.1589 193.156 70.7585 193.156 70.3418C193.156 69.7884 193.153 69.2253 193.146 68.6523C193.146 68.0794 193.14 67.5456 193.127 67.0508C193.12 66.5495 193.107 66.11 193.088 65.7324C193.075 65.3548 193.055 65.0846 193.029 64.9219C193.003 64.7331 192.967 64.5671 192.922 64.4238C192.876 64.2741 192.814 64.1406 192.736 64.0234C192.658 63.9062 192.564 63.7988 192.453 63.7012C192.349 63.6035 192.222 63.5091 192.072 63.418C191.929 63.3333 191.792 63.2585 191.662 63.1934C191.532 63.1283 191.415 63.0697 191.311 63.0176C191.213 62.9655 191.135 62.9134 191.076 62.8613C191.018 62.8027 190.988 62.7409 190.988 62.6758C190.988 62.6172 191.008 62.5716 191.047 62.5391C191.086 62.5 191.154 62.4805 191.252 62.4805ZM215.061 63.9648C215.158 63.9648 215.223 63.9876 215.256 64.0332C215.295 64.0788 215.314 64.1471 215.314 64.2383C215.314 64.3555 215.305 64.4889 215.285 64.6387C215.272 64.7884 215.256 64.9772 215.236 65.2051C215.217 65.4264 215.197 65.6966 215.178 66.0156C215.165 66.3281 215.158 66.709 215.158 67.1582C215.158 67.2428 215.145 67.3177 215.119 67.3828C215.093 67.4479 215.044 67.4805 214.973 67.4805C214.868 67.4805 214.797 67.373 214.758 67.1582C214.725 67.0215 214.696 66.849 214.67 66.6406C214.65 66.4258 214.618 66.1654 214.572 65.8594C214.54 65.612 214.484 65.4199 214.406 65.2832C214.335 65.1465 214.243 65.0456 214.133 64.9805C214.029 64.9154 213.915 64.8763 213.791 64.8633C213.667 64.8503 213.544 64.8438 213.42 64.8438C213.166 64.8438 212.873 64.8568 212.541 64.8828C212.215 64.9023 211.896 64.9284 211.584 64.9609C211.271 64.987 210.988 65.0163 210.734 65.0488C210.487 65.0814 210.314 65.1107 210.217 65.1367C210.008 65.1888 209.878 65.2767 209.826 65.4004C209.781 65.5176 209.758 65.6576 209.758 65.8203C209.758 65.9635 209.761 66.1719 209.768 66.4453C209.774 66.7122 209.784 67.0215 209.797 67.373C209.81 67.7181 209.826 68.0924 209.846 68.4961C209.865 68.8932 209.882 69.2936 209.895 69.6973C209.914 70.1009 209.93 70.4915 209.943 70.8691C209.963 71.2467 209.979 71.5853 209.992 71.8848C210.135 71.9043 210.298 71.9238 210.48 71.9434C210.669 71.9564 210.855 71.9629 211.037 71.9629C211.252 71.9629 211.431 71.9499 211.574 71.9238C211.724 71.8913 211.848 71.849 211.945 71.7969C212.049 71.7448 212.131 71.6829 212.189 71.6113C212.248 71.5332 212.297 71.4486 212.336 71.3574C212.375 71.2598 212.401 71.1654 212.414 71.0742C212.434 70.9831 212.453 70.8789 212.473 70.7617C212.492 70.638 212.521 70.5566 212.561 70.5176C212.6 70.4785 212.639 70.459 212.678 70.459C212.769 70.459 212.814 70.5404 212.814 70.7031C212.814 70.8464 212.805 71.0221 212.785 71.2305C212.772 71.4388 212.756 71.6569 212.736 71.8848C212.717 72.1126 212.697 72.3438 212.678 72.5781C212.665 72.8125 212.658 73.0273 212.658 73.2227C212.658 73.3984 212.658 73.5742 212.658 73.75C212.665 73.9258 212.671 74.0885 212.678 74.2383C212.684 74.388 212.688 74.5215 212.688 74.6387C212.694 74.7559 212.697 74.8438 212.697 74.9023C212.697 74.9935 212.678 75.0814 212.639 75.166C212.606 75.2441 212.544 75.2832 212.453 75.2832C212.303 75.2832 212.219 75.1497 212.199 74.8828C212.193 74.8177 212.186 74.7266 212.18 74.6094C212.18 74.4922 212.176 74.3685 212.17 74.2383C212.163 74.1081 212.15 73.9779 212.131 73.8477C212.118 73.7174 212.098 73.6068 212.072 73.5156C212.04 73.4049 211.981 73.2975 211.896 73.1934C211.812 73.0827 211.678 72.998 211.496 72.9395C211.418 72.9134 211.32 72.8906 211.203 72.8711C211.092 72.8516 210.969 72.8353 210.832 72.8223C210.702 72.8092 210.565 72.7995 210.422 72.793C210.285 72.7799 210.155 72.7702 210.031 72.7637C210.051 73.0892 210.074 73.4928 210.1 73.9746C210.132 74.4499 210.165 74.9544 210.197 75.4883C210.236 76.0156 210.275 76.5495 210.314 77.0898C210.354 77.6302 210.389 78.125 210.422 78.5742C210.454 79.0234 210.48 79.4043 210.5 79.7168C210.526 80.0228 210.546 80.2116 210.559 80.2832C210.585 80.5501 210.653 80.7454 210.764 80.8691C210.874 80.9928 211.05 81.071 211.291 81.1035C211.551 81.1426 211.867 81.1621 212.238 81.1621C212.733 81.1621 213.169 81.1361 213.547 81.084C213.924 81.0319 214.253 80.9408 214.533 80.8105C214.813 80.6803 215.051 80.5046 215.246 80.2832C215.441 80.0684 215.604 79.7949 215.734 79.4629C215.806 79.2871 215.865 79.1146 215.91 78.9453C215.962 78.7695 216.005 78.6133 216.037 78.4766C216.076 78.3398 216.112 78.2292 216.145 78.1445C216.177 78.0599 216.213 78.0176 216.252 78.0176C216.304 78.0176 216.34 78.0794 216.359 78.2031C216.385 78.3203 216.398 78.4603 216.398 78.623C216.398 78.8574 216.385 79.1178 216.359 79.4043C216.34 79.6842 216.311 79.9609 216.271 80.2344C216.232 80.5078 216.187 80.7617 216.135 80.9961C216.089 81.2305 216.044 81.4128 215.998 81.543C215.913 81.7513 215.799 81.8945 215.656 81.9727C215.513 82.0573 215.321 82.0996 215.08 82.0996C214.872 82.0996 214.589 82.0801 214.23 82.041C213.872 82.0085 213.459 81.9661 212.99 81.9141C212.528 81.8685 212.027 81.8197 211.486 81.7676C210.952 81.7155 210.402 81.6732 209.836 81.6406C209.4 81.6146 208.983 81.5951 208.586 81.582C208.195 81.569 207.837 81.5592 207.512 81.5527C207.186 81.5462 206.903 81.543 206.662 81.543C206.421 81.543 206.232 81.543 206.096 81.543C205.913 81.543 205.793 81.5169 205.734 81.4648C205.682 81.4193 205.656 81.3574 205.656 81.2793C205.656 81.1816 205.692 81.1133 205.764 81.0742C205.835 81.0352 205.926 81.0156 206.037 81.0156C206.109 81.0156 206.229 81.0221 206.398 81.0352C206.574 81.0547 206.786 81.0645 207.033 81.0645C207.118 81.0645 207.202 81.0612 207.287 81.0547C207.378 81.0547 207.476 81.0482 207.58 81.0352C207.814 81.0286 207.993 80.9863 208.117 80.9082C208.247 80.8366 208.342 80.7487 208.4 80.6445C208.459 80.5469 208.492 80.4427 208.498 80.332C208.511 80.2214 208.518 80.1237 208.518 80.0391C208.505 79.4076 208.469 78.7337 208.41 78.0176C208.358 77.2949 208.299 76.5918 208.234 75.9082C208.176 75.2246 208.114 74.5964 208.049 74.0234C207.99 73.4505 207.945 72.9948 207.912 72.6562C207.893 72.4349 207.867 72.1712 207.834 71.8652C207.801 71.5527 207.762 71.2207 207.717 70.8691C207.678 70.5176 207.632 70.1595 207.58 69.7949C207.535 69.4238 207.486 69.0658 207.434 68.7207C207.388 68.3691 207.339 68.0436 207.287 67.7441C207.242 67.4447 207.199 67.1908 207.16 66.9824C207.108 66.7285 207.049 66.5104 206.984 66.3281C206.926 66.1458 206.861 65.9863 206.789 65.8496C206.717 65.7129 206.639 65.5957 206.555 65.498C206.477 65.4004 206.389 65.3158 206.291 65.2441C206.219 65.1855 206.135 65.1302 206.037 65.0781C205.939 65.0195 205.845 64.9642 205.754 64.9121C205.669 64.86 205.598 64.8112 205.539 64.7656C205.48 64.7135 205.451 64.6582 205.451 64.5996C205.451 64.4954 205.539 64.4434 205.715 64.4434C205.806 64.4434 205.933 64.4564 206.096 64.4824C206.258 64.502 206.46 64.5247 206.701 64.5508C206.949 64.5768 207.238 64.6029 207.57 64.6289C207.909 64.6484 208.296 64.6582 208.732 64.6582C209.071 64.6582 209.452 64.6419 209.875 64.6094C210.298 64.5703 210.731 64.528 211.174 64.4824C211.623 64.4303 212.066 64.375 212.502 64.3164C212.938 64.2513 213.335 64.196 213.693 64.1504C214.051 64.0983 214.351 64.056 214.592 64.0234C214.839 63.9844 214.995 63.9648 215.061 63.9648ZM224.357 66.2598C225.139 66.2598 225.78 66.3737 226.281 66.6016C226.783 66.8229 227.18 67.1094 227.473 67.4609C227.766 67.806 227.967 68.1901 228.078 68.6133C228.195 69.0299 228.254 69.4336 228.254 69.8242C228.254 70.2083 228.205 70.599 228.107 70.9961C228.01 71.3867 227.863 71.7546 227.668 72.0996C227.479 72.4447 227.245 72.7572 226.965 73.0371C226.691 73.3105 226.376 73.5189 226.018 73.6621L225.617 73.8184C225.936 74.7754 226.317 75.5957 226.76 76.2793C227.202 76.9629 227.678 77.526 228.186 77.9688C228.7 78.4115 229.234 78.737 229.787 78.9453C230.347 79.1536 230.904 79.2578 231.457 79.2578C231.776 79.2578 232.066 79.2155 232.326 79.1309C232.593 79.0462 232.821 78.9225 233.01 78.7598C233.205 78.5905 233.355 78.3887 233.459 78.1543C233.563 77.9134 233.615 77.6367 233.615 77.3242C233.615 77.0898 233.602 76.8945 233.576 76.7383C233.55 76.582 233.521 76.4551 233.488 76.3574C233.462 76.2533 233.436 76.1719 233.41 76.1133C233.384 76.0547 233.371 76.0026 233.371 75.957C233.371 75.9245 233.378 75.8984 233.391 75.8789C233.404 75.8529 233.43 75.8398 233.469 75.8398C233.527 75.8398 233.599 75.8887 233.684 75.9863C233.768 76.0775 233.846 76.2012 233.918 76.3574C233.996 76.5137 234.061 76.6927 234.113 76.8945C234.165 77.0898 234.191 77.2917 234.191 77.5C234.191 77.9948 234.12 78.4538 233.977 78.877C233.833 79.3001 233.612 79.668 233.312 79.9805C233.02 80.293 232.648 80.5371 232.199 80.7129C231.75 80.8887 231.223 80.9766 230.617 80.9766C229.771 80.9766 229.012 80.8496 228.342 80.5957C227.678 80.3483 227.089 80.026 226.574 79.6289C226.06 79.2318 225.617 78.7891 225.246 78.3008C224.875 77.806 224.559 77.3145 224.299 76.8262C224.038 76.3314 223.83 75.8659 223.674 75.4297C223.518 74.9935 223.397 74.6354 223.312 74.3555C223.124 74.3815 222.945 74.401 222.775 74.4141C222.606 74.4206 222.447 74.4238 222.297 74.4238C222.115 74.4238 221.958 74.4206 221.828 74.4141C221.704 74.4076 221.607 74.3978 221.535 74.3848C221.548 74.8079 221.564 75.2572 221.584 75.7324C221.61 76.2012 221.643 76.6536 221.682 77.0898C221.721 77.526 221.77 77.9199 221.828 78.2715C221.887 78.6165 221.955 78.8802 222.033 79.0625C222.17 79.3685 222.346 79.6094 222.561 79.7852C222.775 79.9544 222.987 80.0879 223.195 80.1855C223.404 80.2897 223.583 80.3711 223.732 80.4297C223.882 80.4883 223.957 80.5501 223.957 80.6152C223.957 80.6999 223.863 80.7422 223.674 80.7422C223.465 80.7422 223.231 80.7096 222.971 80.6445C222.71 80.5859 222.427 80.5208 222.121 80.4492C221.822 80.3776 221.503 80.3092 221.164 80.2441C220.826 80.1855 220.474 80.1562 220.109 80.1562C219.758 80.1562 219.396 80.1693 219.025 80.1953C218.654 80.2279 218.316 80.2441 218.01 80.2441C217.587 80.2441 217.284 80.2148 217.102 80.1562C216.919 80.0977 216.828 80 216.828 79.8633C216.828 79.7786 216.854 79.7103 216.906 79.6582C216.958 79.6061 217.059 79.5801 217.209 79.5801C217.378 79.5801 217.528 79.5833 217.658 79.5898C217.795 79.5964 217.932 79.5996 218.068 79.5996C218.387 79.5996 218.661 79.5768 218.889 79.5312C219.123 79.4857 219.312 79.3945 219.455 79.2578C219.598 79.1146 219.702 78.916 219.768 78.6621C219.839 78.4082 219.875 78.0729 219.875 77.6562C219.875 77.487 219.868 77.207 219.855 76.8164C219.842 76.4258 219.82 75.9733 219.787 75.459C219.755 74.9447 219.712 74.3945 219.66 73.8086C219.615 73.2227 219.559 72.6497 219.494 72.0898C219.429 71.5234 219.351 70.9961 219.26 70.5078C219.169 70.0195 219.068 69.6159 218.957 69.2969C218.84 68.9779 218.7 68.7272 218.537 68.5449C218.374 68.3626 218.189 68.2227 217.98 68.125C217.779 68.0273 217.557 67.9622 217.316 67.9297C217.082 67.8971 216.835 67.8678 216.574 67.8418C216.464 67.8288 216.376 67.806 216.311 67.7734C216.245 67.7344 216.213 67.6693 216.213 67.5781C216.213 67.5 216.239 67.4349 216.291 67.3828C216.343 67.3242 216.451 67.2884 216.613 67.2754C216.796 67.2624 216.958 67.2559 217.102 67.2559C217.245 67.2559 217.388 67.2559 217.531 67.2559C217.727 67.2559 217.915 67.2559 218.098 67.2559C218.28 67.2559 218.472 67.2526 218.674 67.2461C218.882 67.2331 219.11 67.2168 219.357 67.1973C219.611 67.1712 219.904 67.1387 220.236 67.0996C220.666 67.054 221.057 66.9857 221.408 66.8945C221.766 66.7969 222.105 66.7025 222.424 66.6113C222.749 66.5137 223.065 66.4323 223.371 66.3672C223.684 66.2956 224.012 66.2598 224.357 66.2598ZM221.516 73.877C222.271 73.8704 222.919 73.763 223.459 73.5547C224.006 73.3464 224.455 73.0632 224.807 72.7051C225.158 72.3405 225.415 71.9141 225.578 71.4258C225.747 70.9375 225.832 70.4102 225.832 69.8438C225.832 68.8346 225.646 68.0762 225.275 67.5684C224.904 67.054 224.377 66.7969 223.693 66.7969C223.407 66.7969 223.153 66.849 222.932 66.9531C222.71 67.0508 222.515 67.1908 222.346 67.373C222.183 67.5488 222.049 67.7637 221.945 68.0176C221.841 68.265 221.763 68.5384 221.711 68.8379C221.613 69.4629 221.551 70.0846 221.525 70.7031C221.506 71.3151 221.496 71.9076 221.496 72.4805L221.516 73.877Z" fill="white"/>
</svg>
